<svg width="1440" height="752" viewBox="0 0 1440 752" fill="none" xmlns="http://www.w3.org/2000/svg">
<path opacity="0.4" d="M29.9072 466.274C32.6635 460.542 37.805 452.357 43.3646 450.395C50.3768 447.921 58.3357 443.478 62.4701 434.879C67.5232 424.37 64.9824 407.856 49.3894 401.535C35.383 395.857 22.5822 401.585 16.1233 412.595C11.0726 423.106 14.1928 429.869 16.3943 436.251C19.7997 446.122 16.4423 448.261 11.936 457.633M29.9072 466.274L11.936 457.633M29.9072 466.274C26.9888 474.281 21.521 473.221 19.1519 471.689C20.0978 472.144 20.287 472.235 13.4768 468.961C10.9629 467.752 9.77837 466.221 9.40117 464.648C8.75651 461.961 10.4699 459.155 11.936 457.633M74.2255 434.65L92.1154 436.194M54.4426 391.026L61.7926 375.739M69.6846 407.764L85.1422 402.257M9.44818 404.68L-3.87505 391.217M30.9047 389.119L25.1212 376.927" stroke="#EACB7C" stroke-opacity="0.5" stroke-width="6" stroke-linecap="round" stroke-linejoin="round"/>
<g opacity="0.4">
<path d="M1163 796.805C1193.25 760.511 1210.68 732.756 1299.1 696.778C1361.05 671.572 1364.43 638.988 1369.85 587.456C1377.11 518.546 1386.11 450 1420.5 450C1482.61 450 1454.25 589.868 1430.94 641.313C1407.63 692.759 1393.17 723.98 1305.54 738.449C1235.43 750.024 1186.28 813.334 1170.47 839.861M1273.38 641.313C1293.67 621.217 1310.68 596.781 1305.54 544.049C1299.1 478.134 1246.26 489.724 1232.03 521.037C1220.97 545.363 1231.57 561.733 1235.59 572.183C1239.61 582.633 1246.04 601.121 1242.83 621.217C1239.61 641.313 1256.66 657.867 1273.38 641.313Z" stroke="#B5CE80" stroke-opacity="0.5" stroke-width="8" stroke-linecap="round" stroke-linejoin="round"/>
<path d="M1193.96 886.475C1206.3 871.482 1230.96 827.407 1288.96 813.174C1352.85 797.496 1385.75 804.634 1445.17 773.677C1511.68 739.029 1530.57 693.615 1549.76 703.35C1574.62 715.957 1530.44 796.519 1411.3 822.22C1292.52 840.929 1261.58 819.008 1193.96 914.586" stroke="#B5CE80" stroke-opacity="0.5" stroke-width="8" stroke-linecap="round" stroke-linejoin="round"/>
</g>
<g opacity="0.4" clip-path="url(#clip0_70_13173)">
<path d="M194.111 95.112C197.743 99.332 200.084 106.58 201.914 111.86C201.187 103.894 202.29 94.4353 202.609 86.3496L145.135 57.9619L194.111 95.112Z" fill="#E1DEE5"/>
<path d="M113.756 42.6318C145.011 59.1164 170.242 75.4661 195.005 94.6247C188.32 105.187 175.857 108.266 169.196 119.486C155.47 105.618 153.52 97.2762 142.983 80.7689C136.979 71.3634 121.99 50.1828 113.756 42.6318Z" stroke="#A0CE7C" stroke-width="4" stroke-miterlimit="10" stroke-linecap="round" stroke-linejoin="round"/>
<path d="M162.658 67.057C174.342 73.4863 188.53 83.5075 201.496 86.3808C205.812 79.8585 214.079 73.6048 220.611 68.9679C187.708 60.7533 147.621 45.8957 113.756 42.6318C113.756 42.6318 147.556 58.7392 162.658 67.057Z" stroke="#A0CE7C" stroke-width="4" stroke-miterlimit="10" stroke-linecap="round" stroke-linejoin="round"/>
<path d="M194.111 95.1123C197.743 99.3324 200.084 106.581 201.914 111.86C201.186 103.894 202.29 94.4356 202.609 86.35" stroke="#A0CE7C" stroke-width="4" stroke-miterlimit="10" stroke-linecap="round" stroke-linejoin="round"/>
</g>
<path opacity="0.4" d="M420.006 684.292C427.841 678.408 444.144 666.219 446.68 664.533M422.119 730.133C425.376 730.221 435.112 734.717 448 752M367.715 725.127L359 732.768M375.638 678.496C372.645 675.071 366.078 667.852 363.754 666.377M398.351 659C397.822 671.909 390.956 704.578 437.965 705.632C412.611 705.632 399.407 715.907 399.935 749.365C399.935 716.96 378.807 705.632 360.849 705.632C369.828 705.632 396.766 697.992 398.351 659Z" stroke="#6AB4DE" stroke-opacity="0.5" stroke-width="5" stroke-linecap="round" stroke-linejoin="round"/>
<g opacity="0.4">
<path d="M1339.03 3C1339.03 17.0173 1338.16 41.8104 1367 42.8617C1339.03 41.5476 1339.03 71.7723 1339.03 79C1339.28 71.9914 1339.69 42.8617 1308 42.8617C1329.63 42.8617 1336.41 21.6167 1339.03 3Z" stroke="#6AB4DE" stroke-opacity="0.5" stroke-width="5" stroke-linecap="round" stroke-linejoin="round"/>
<path d="M1356.03 25.4819L1377.62 9M1359.48 61.6988C1365.67 66.5422 1378.44 77.1831 1380 81M1313.7 57.3614L1307 63.8675M1320.61 19.8434L1313.7 13.5542" stroke="#6AB4DE" stroke-opacity="0.5" stroke-width="5" stroke-linecap="round"/>
</g>
<defs>
<clipPath id="clip0_70_13173">
<rect width="102.96" height="88.94" fill="white" transform="translate(112 41.4424) rotate(-10.8846)"/>
</clipPath>
</defs>
</svg>
