<svg width="1440" height="83" viewBox="0 0 1440 83" fill="none" xmlns="http://www.w3.org/2000/svg">
<path d="M-75 16.8842V82.8842H99V16.8842C85 17.3842 75 18.032 58 10.8603C22.5 -4.1158 0.5 -3.11585 -34 10.8603C-49.5929 17.1771 -68 16.7175 -75 16.8842Z" fill="white" fill-opacity="0.08"/>
<path d="M99 16.8842V82.8842H273V16.8842C259 17.3842 249 18.032 232 10.8603C196.5 -4.1158 174.5 -3.11585 140 10.8603C124.407 17.1771 106 16.7175 99 16.8842Z" fill="white" fill-opacity="0.08"/>
<path d="M273 16.8842V82.8842H447V16.8842C433 17.3842 423 18.032 406 10.8603C370.5 -4.1158 348.5 -3.11585 314 10.8603C298.407 17.1771 280 16.7175 273 16.8842Z" fill="white" fill-opacity="0.08"/>
<path d="M447 16.8842V82.8842H621V16.8842C607 17.3842 597 18.032 580 10.8603C544.5 -4.1158 522.5 -3.11585 488 10.8603C472.407 17.1771 454 16.7175 447 16.8842Z" fill="white" fill-opacity="0.08"/>
<path d="M621 16.8842V82.8842H795V16.8842C781 17.3842 771 18.032 754 10.8603C718.5 -4.1158 696.5 -3.11585 662 10.8603C646.407 17.1771 628 16.7175 621 16.8842Z" fill="white" fill-opacity="0.08"/>
<path d="M795 16.8842V82.8842H969V16.8842C955 17.3842 945 18.032 928 10.8603C892.5 -4.1158 870.5 -3.11585 836 10.8603C820.407 17.1771 802 16.7175 795 16.8842Z" fill="white" fill-opacity="0.08"/>
<path d="M969 16.8842V82.8842H1143V16.8842C1129 17.3842 1119 18.032 1102 10.8603C1066.5 -4.1158 1044.5 -3.11585 1010 10.8603C994.407 17.1771 976 16.7175 969 16.8842Z" fill="white" fill-opacity="0.08"/>
<path d="M1143 16.8842V82.8842H1317V16.8842C1303 17.3842 1293 18.032 1276 10.8603C1240.5 -4.1158 1218.5 -3.11585 1184 10.8603C1168.41 17.1771 1150 16.7175 1143 16.8842Z" fill="white" fill-opacity="0.08"/>
<path d="M1317 16.8842V82.8842H1491V16.8842C1477 17.3842 1467 18.032 1450 10.8603C1414.5 -4.1158 1392.5 -3.11585 1358 10.8603C1342.41 17.1771 1324 16.7175 1317 16.8842Z" fill="white" fill-opacity="0.08"/>
</svg>
