<svg width="65" height="78" viewBox="0 0 65 78" fill="none" xmlns="http://www.w3.org/2000/svg">
<path d="M15.3652 23.9681C15.5009 24.0001 15.6392 24.0162 15.778 24.0162C16.0522 24.0279 16.3237 23.9535 16.5608 23.8016C17.122 23.4858 17.7435 23.3212 18.374 23.3212C19.0045 23.3212 19.626 23.4858 20.1872 23.8016C20.4223 23.9538 20.6923 24.0287 20.9651 24.0175C21.1213 24.0193 21.2771 23.9977 21.428 23.9535V12.0186H15.3652V23.9681Z" fill="#FFEBCD"/>
<path d="M38.8594 58.0186L47.6059 77.0186H52.5006L43.6059 58.0186H38.8594Z" fill="black"/>
<path d="M19.1425 26.2645C18.9046 26.1031 18.6384 26.0186 18.3678 26.0186C18.0973 26.0186 17.831 26.1031 17.5931 26.2645C17.0351 26.6384 16.41 26.8272 15.7773 26.8131C15.6318 26.8131 15.5336 26.8029 15.3652 26.7886V40.2208C15.3652 41.228 15.6846 42.194 16.2531 42.9062C16.8216 43.6184 17.5926 44.0186 18.3966 44.0186C19.2006 44.0186 19.9716 43.6184 20.5401 42.9062C21.1086 42.194 21.428 41.228 21.428 40.2208V26.7814C21.2596 26.7996 21.1297 26.8124 20.9645 26.8124C20.3299 26.8268 19.7028 26.6382 19.1425 26.2645Z" fill="#8850FF"/>
<path d="M13.0918 77.0186H17.9864L26.733 58.0186H21.9864L13.0918 77.0186Z" fill="black"/>
<path d="M0.966797 55.0186H64.6258V0.0185547H0.966797V55.0186ZM3.43899 4.66929C3.43899 4.29389 3.55294 3.93387 3.75578 3.66842C3.95862 3.40298 4.23372 3.25385 4.52057 3.25385H61.072C61.3588 3.25385 61.6339 3.40298 61.8368 3.66842C62.0396 3.93387 62.1536 4.29389 62.1536 4.66929V50.3678C62.1536 50.7432 62.0396 51.1032 61.8368 51.3687C61.6339 51.6341 61.3588 51.7833 61.072 51.7833H4.52057C4.23372 51.7833 3.95862 51.6341 3.75578 51.3687C3.55294 51.1032 3.43899 50.7432 3.43899 50.3678V4.66929Z" fill="black"/>
<path d="M59.3206 6.01855H6.27148V49.0186H59.3206V6.01855ZM34.3131 18.594H41.5867C41.8665 18.594 42.1348 18.7436 42.3327 19.0099C42.5305 19.2761 42.6416 19.6373 42.6416 20.0138C42.6416 20.3904 42.5305 20.7515 42.3327 21.0178C42.1348 21.2841 41.8665 21.4336 41.5867 21.4336H34.3131C34.0333 21.4336 33.765 21.2841 33.5671 21.0178C33.3693 20.7515 33.2581 20.3904 33.2581 20.0138C33.2581 19.6373 33.3693 19.2761 33.5671 19.0099C33.765 18.7436 34.0333 18.594 34.3131 18.594ZM23.1508 40.3804C23.1508 42.1018 22.6427 43.7527 21.7382 44.9699C20.8338 46.1872 19.6072 46.871 18.3281 46.871C17.0491 46.871 15.8224 46.1872 14.918 44.9699C14.0136 43.7527 13.5055 42.1018 13.5055 40.3804V10.1169C13.5075 9.73386 13.6204 9.36692 13.8202 9.09403C14.02 8.82114 14.2909 8.66378 14.5755 8.65535H22.0807C22.3652 8.66439 22.6358 8.82195 22.8355 9.0947C23.0352 9.36746 23.1483 9.73404 23.1508 10.1169V40.3804ZM53.6433 37.6601H34.3131C34.0333 37.6601 33.765 37.5105 33.5671 37.2442C33.3693 36.9779 33.2581 36.6168 33.2581 36.2403C33.2581 35.8637 33.3693 35.5026 33.5671 35.2363C33.765 34.97 34.0333 34.8204 34.3131 34.8204H53.6433C53.9231 34.8204 54.1914 34.97 54.3893 35.2363C54.5871 35.5026 54.6983 35.8637 54.6983 36.2403C54.6983 36.6168 54.5871 36.9779 54.3893 37.2442C54.1914 37.5105 53.9231 37.6601 53.6433 37.6601ZM53.6433 29.5469H34.3131C34.0333 29.5469 33.765 29.3973 33.5671 29.131C33.3693 28.8647 33.2581 28.5036 33.2581 28.127C33.2581 27.7505 33.3693 27.3894 33.5671 27.1231C33.765 26.8568 34.0333 26.7072 34.3131 26.7072H53.6433C53.9231 26.7072 54.1914 26.8568 54.3893 27.1231C54.5871 27.3894 54.6983 27.7505 54.6983 28.127C54.6983 28.5036 54.5871 28.8647 54.3893 29.131C54.1914 29.3973 53.9231 29.5469 53.6433 29.5469Z" fill="#FFC875"/>
</svg>
