<svg width="59" height="63" viewBox="0 0 59 63" fill="none" xmlns="http://www.w3.org/2000/svg">
<path d="M26.6753 10.1452C22.6528 7.08644 16.5299 8.44998 12.1256 10.114C7.88583 11.7159 5.35968 14.479 4.24321 18.7753C1.9603 27.5601 3.43497 36.9317 7.54571 44.9149C11.3948 52.3899 18.3671 59.5291 26.9868 60.9289C36.9782 62.5514 46.9763 56.8244 52.3008 48.5289C55.6362 43.3325 56.9209 37.4596 57.3169 31.3622C57.631 26.5241 57.3297 21.9898 55.1515 17.6069C51.4178 10.094 43.6733 4.55045 35.5702 2.63665C27.4101 0.709384 18.5497 3.66763 11.9387 8.50949C8.84879 10.7725 6.23321 13.6867 4.43014 17.0773C2.38171 20.9292 2.18803 24.7013 2 28.932" stroke="#FFFA80" stroke-width="3" stroke-linecap="round"/>
<path d="M5.36187 18.1883C5.01318 18.8203 6.60636 17.4469 7.16681 16.992C9.36656 15.2068 11.4873 13.3269 13.673 11.5247C17.3021 8.53244 21.0112 5.63485 24.4607 2.43178C24.5946 2.30743 25.1414 1.79832 25.3474 1.59227C25.4325 1.50722 25.162 1.74577 25.0746 1.82838C24.0175 2.82743 23.9052 2.96871 22.6033 4.4466C19.7358 7.70164 16.8264 11.1601 14.0718 14.484C12.6537 16.1952 11.2318 17.9038 9.85324 19.647C9.30033 20.3461 8.67167 21.0084 8.27916 21.8087C7.7473 22.8931 10.1369 20.2628 11.0233 19.4423C14.0076 16.6803 17.0754 14.0228 20.2422 11.4722C23.3852 8.94087 26.6698 6.60591 29.8336 4.10555C29.837 4.10287 30.3833 3.66815 30.4632 3.60185C30.5305 3.546 30.3215 3.70445 30.2533 3.75925C28.2649 5.35834 26.3007 6.99287 24.3872 8.68088C19.233 13.2278 14.7317 18.3111 10.3674 23.6032C9.28639 24.914 8.17608 26.2123 7.20879 27.6118C6.84882 28.1326 6.48957 28.8173 7.40293 27.9843C12.0906 23.7092 16.3335 18.9342 20.919 14.5469C23.2918 12.2768 25.7004 10.0436 28.1073 7.80989C29.6138 6.41177 31.1782 5.05274 32.583 3.54938C34.7748 1.20367 27.8002 7.84399 25.594 10.1763C20.3458 15.7244 15.4138 21.6256 10.6718 27.6118C9.76517 28.7563 8.87191 29.917 8.06929 31.1378C7.78059 31.5769 7.47035 32.0673 8.15324 31.2952C13.2174 25.5694 18.0872 19.7213 23.6369 14.442C26.0039 12.1904 28.4386 10.0069 30.8934 7.85186C31.9962 6.88381 33.0914 5.80993 34.283 4.94506C34.8435 4.53824 33.3194 5.94037 32.8243 6.4247C29.826 9.35803 26.8377 12.3035 24.02 15.4127C18.6377 21.3518 13.5021 27.5185 8.80386 34.0131C8.44078 34.515 7.27727 35.7004 7.1878 36.4162C7.16763 36.5776 7.47129 36.2474 7.58132 36.1276C8.68262 34.9284 9.66848 33.6116 10.7137 32.3655C16.3014 25.7043 22.1682 19.2322 28.3854 13.1513C30.3642 11.2159 36.3327 5.44384 34.3092 7.33241C33.0623 8.4962 31.9089 9.78598 30.7308 11.0158C27.3872 14.506 24.1188 18.057 20.982 21.7352C16.2863 27.2415 11.5665 32.9365 7.98534 39.26C7.91992 39.3755 7.75936 39.725 7.85941 39.6378C8.12682 39.4047 8.90253 38.382 8.96127 38.3051C11.892 34.4648 14.6935 30.5344 17.8706 26.8877C21.1366 23.139 24.5935 19.5418 28.0549 15.9741C30.3585 13.5996 32.6793 11.1847 35.1644 8.99569C35.2914 8.88385 35.7002 8.60384 35.6052 8.74384C35.3639 9.09928 34.2857 10.309 34.157 10.4543C31.4838 13.4745 28.7915 16.4751 26.1712 19.542C20.9346 25.6711 15.6324 31.9604 11.5113 38.919C11.3595 39.1753 10.799 40.0889 11.5637 39.2285C14.3735 36.0675 16.8264 32.5802 19.5496 29.3433C25.217 22.6068 31.423 16.3191 37.6672 10.1185C37.9043 9.88313 38.3236 9.47318 38.6064 9.21606C38.7874 9.05152 38.791 9.05755 38.6117 9.26853C37.1582 10.9785 35.5941 12.6009 34.0993 14.2741C27.489 21.6735 21.1612 29.3544 15.4989 37.5075C14.7861 38.534 13.8705 39.6011 13.3267 40.7396C13.2606 40.878 13.5554 40.5334 13.652 40.4143C14.6864 39.1404 15.6393 37.8001 16.6113 36.4791C21.8793 29.3196 27.5227 22.4492 32.7509 15.2605" stroke="#FFFA80" stroke-linecap="round"/>
<path d="M13.5781 33.8667C13.6079 33.8597 13.644 33.8655 13.6673 33.8457C14.0372 33.5328 15.0104 32.4606 15.1365 32.3241C16.6411 30.6946 18.118 29.0395 19.5911 27.3815C22.2405 24.3998 24.8891 21.4262 27.6714 18.5667C28.3096 17.9107 28.9449 17.2416 29.6128 16.6148C29.843 16.3987 30.123 16.1833 29.7492 16.6778C27.9419 19.0684 25.7867 21.234 23.8516 23.5198C21.1527 26.7079 18.3258 29.9177 16.0862 33.4575C15.6369 34.1675 15.2163 34.9213 14.9161 35.7084C14.7247 36.2103 14.7826 36.3557 15.2362 35.9235C16.5754 34.6475 17.773 33.173 19.0139 31.8099C22.0293 28.498 25.0835 25.2202 28.2276 22.0296C29.1243 21.1197 30.0324 20.2208 30.9507 19.3327C31.7142 18.5944 33.9514 16.4345 33.4692 17.3809C32.9605 18.3793 32.2498 19.2621 31.5961 20.1722C31.32 20.5567 25.3807 28.4874 24.7751 29.3963C23.3364 31.5557 28.5436 25.8248 30.3263 23.9395C32.3271 21.8237 34.3874 19.767 36.4443 17.7062C37.1432 17.0059 37.8434 16.307 38.543 15.6074C39.0118 15.1386 37.617 16.5563 37.1578 17.0346C33.762 20.5715 30.3904 24.1277 27.1887 27.8432C23.5145 32.1069 19.8164 36.4909 16.9047 41.3279C16.4765 42.0392 15.7404 43.0831 15.6297 43.9566C15.5704 44.4238 16.5262 43.5882 16.8522 43.2482C18.5452 41.4826 20.0312 39.5048 21.5482 37.592C23.5031 35.1271 25.4562 32.664 27.4825 30.2568C30.4126 26.7759 33.3816 23.2278 36.7171 20.1198C36.9259 19.9252 37.7663 19.1527 37.0949 20.0988C36.0292 21.6004 34.7684 22.9897 33.5689 24.3803C29.2465 29.3912 24.89 34.336 20.9343 39.6488C19.7149 41.2867 18.5141 42.9472 17.3926 44.6544C17.1354 45.0461 16.4363 46.2324 16.7892 45.9242C17.8387 45.0077 18.7394 43.751 19.6226 42.6973C21.6949 40.2248 23.7467 37.7354 25.8559 35.2939C29.492 31.085 33.2608 26.9958 37.2208 23.0895C37.7492 22.5683 39.2433 20.9346 38.8316 21.5522C38.3914 22.2125 37.5554 22.9231 37.0424 23.4778C32.9346 27.9201 28.8416 32.4112 25.1948 37.2457C23.5825 39.3833 22.0556 41.5899 20.5985 43.8359C20.1039 44.5983 19.1886 45.7428 18.9405 46.6902C18.8156 47.1672 19.8085 46.1932 20.1473 45.835C21.6462 44.2499 22.9674 42.4993 24.3343 40.8032C28.5053 35.6279 32.7924 30.5481 37.3677 25.7235C38.2802 24.7613 39.2055 23.8011 40.1801 22.9006C41.1203 22.032 40.0412 23.2167 40.0332 23.2259C36.823 26.9122 33.5688 30.5636 30.4628 34.3389C28.2729 37.0007 26.1597 39.7215 24.1245 42.5032C23.0729 43.9404 21.9559 45.4051 21.0603 46.9526C20.9311 47.1757 20.4212 48.1221 21.1862 47.556C22.4124 46.6486 23.4356 45.2834 24.4183 44.1507C28.9911 38.8802 33.4654 33.5411 38.3227 28.5253C40.3136 26.4694 46.3626 20.3766 44.3252 22.3864C40.0309 26.6227 35.8789 31.0102 31.9319 35.572C28.6654 39.3472 25.3691 43.2604 22.7917 47.556C22.6653 47.7668 22.5369 47.9777 22.4349 48.2013C22.3591 48.3677 22.324 48.5923 22.5819 48.3692C23.71 47.3936 24.66 45.9938 25.5779 44.8538C29.6348 39.8149 33.7475 34.8711 38.2335 30.2044C39.8985 28.4722 41.5851 26.7587 43.3177 25.0939C43.7479 24.6805 44.9558 23.4017 44.6767 23.929C44.2445 24.7453 43.2469 25.5963 42.6566 26.2482C40.7385 28.3668 38.8383 30.4985 36.9742 32.6652C32.5316 37.829 28.1023 43.061 24.3186 48.7365C23.7177 49.6378 22.7071 50.8967 22.3615 51.9896C22.1216 52.7482 23.4949 50.8687 23.9985 50.2529C27.902 45.4801 31.5835 40.5412 35.5838 35.8448C38.4696 32.4569 41.3766 29.0196 44.577 25.9176C46.2274 24.318 41.4372 29.2756 39.902 30.9862C35.3414 36.0677 30.9121 41.3438 27.1205 47.0313C26.3639 48.1661 25.3879 49.445 24.88 50.7409C24.8455 50.829 24.7905 50.9588 24.859 51.0242C25.1279 51.2808 25.5035 50.6411 25.772 50.3841C29.531 46.7855 32.7184 42.5625 36.1504 38.6624C39.2762 35.1104 42.5095 31.6621 45.789 28.2525C45.9477 28.0876 46.104 27.9204 46.2665 27.7593C46.2966 27.7295 46.3825 27.6415 46.3662 27.6806C46.3335 27.7591 46.2681 27.8196 46.2141 27.8852C45.2776 29.0234 44.2798 30.1164 43.3125 31.2275C39.2764 35.8639 35.2532 40.5391 31.5541 45.452C30.4948 46.8588 29.4762 48.2989 28.5319 49.7859C28.2493 50.231 27.401 51.5106 27.8288 51.2026C28.789 50.5112 29.644 49.2456 30.3998 48.3797C32.3535 46.1417 34.3064 43.9033 36.2764 41.6794C39.2387 38.3352 42.1513 34.8501 45.4165 31.7889C47.1561 30.1581 42.3588 35.4487 40.8097 37.2615C37.295 41.3745 33.76 45.4953 30.5362 49.8436C29.9642 50.6151 29.4078 51.4015 28.8887 52.21C28.7918 52.3608 28.3159 53.0436 28.9202 52.4461C30.15 51.2301 31.2762 49.8906 32.4356 48.6106C34.6752 46.138 36.9203 43.6702 39.1989 41.2334C41.0674 39.2352 42.9649 37.2672 44.8918 35.3254C45.5892 34.6226 46.3104 33.7716 47.0903 33.1426C47.5215 32.7949 46.4168 34.023 46.0566 34.4439C44.5975 36.1492 43.1136 37.8332 41.6545 39.5387C38.2804 43.4825 34.779 47.3991 31.7797 51.6433C31.6848 51.7776 30.4269 53.326 30.5257 53.7211C30.5436 53.7925 30.6636 53.6636 30.7199 53.6162C31.0484 53.3389 31.8614 52.452 32.0368 52.2625C35.7847 48.2123 39.398 44.0499 43.2338 40.0791C44.9364 38.3165 46.6561 36.5677 48.4073 34.8531C48.6442 34.6212 48.8832 34.3915 49.1261 34.1658C49.2141 34.084 49.6527 33.656 49.3412 34.0556C46.7792 37.3428 43.8313 40.3633 41.0983 43.5053C38.7163 46.2438 36.369 49.0145 34.1461 51.8847C33.6143 52.5714 33.0928 53.2663 32.5878 53.973C32.2047 54.509 31.0479 55.9737 31.6538 55.715C32.0168 55.56 32.2933 55.249 32.5825 54.9804C33.6893 53.9525 36.7747 50.7585 37.5776 49.9328C41.6907 45.7033 45.8116 41.4819 49.9394 37.2667" stroke="#FFFA80" stroke-linecap="round"/>
<path d="M46.9166 43.4998C46.088 44.4432 44.1113 46.6492 43.2542 47.7708C43.0785 48.0008 42.7033 48.2461 42.8082 48.5159C42.8925 48.7325 43.2232 48.2982 43.4011 48.1486C43.9165 47.7154 44.3946 47.2395 44.8808 46.7739C46.9076 44.8326 48.831 42.7785 50.9252 40.9078C51.0834 40.7666 51.3487 40.3233 51.429 40.5195C51.4598 40.5948 51.3587 40.6669 51.3135 40.7346C51.0472 41.1342 50.4283 41.9272 50.2012 42.2195C47.9605 45.1044 45.6023 47.896 43.2857 50.7196C41.5784 52.8005 39.8102 54.8516 38.1804 56.9949C38.0729 57.1363 37.7599 57.5589 37.8971 57.4461C38.5715 56.8922 39.1558 56.0171 39.6968 55.3579C42.1767 52.3361 44.6972 49.3614 47.3521 46.4905C48.584 45.1583 49.8348 43.8423 51.1141 42.5553C51.4988 42.1684 52.617 40.9833 52.2999 41.4272C52.0544 41.7711 51.7421 42.062 51.4604 42.3769C50.1804 43.8085 48.8997 45.2398 47.6407 46.6899C44.8933 49.8543 42.1809 53.0615 39.6286 56.3862C39.0935 57.0832 38.4841 57.8905 37.9863 58.6372C37.8369 58.8613 37.519 59.5552 37.745 59.4085C38.0516 59.2093 38.6826 58.5532 38.8678 58.3591C40.1644 57.0002 41.4042 55.5849 42.6823 54.2088C45.4478 51.2312 48.2731 48.3153 51.1666 45.4621C55.0155 41.667 49.9598 46.6588 52.7302 43.9195C52.7675 43.8826 53.5106 43.1086 52.8561 43.8566C51.1064 45.8562 49.357 47.8529 47.6512 49.8905C45.5432 52.4085 43.2975 54.9142 41.4913 57.6665C41.4242 57.7687 41.2441 58.0721 41.3443 58.0023C41.9976 57.5473 42.6605 56.6176 43.1545 56.0609C45.5468 53.3654 47.8656 50.6047 50.3376 47.9807C50.9275 47.3544 52.0508 46.2008 52.6777 45.5566C52.8891 45.3394 53.0998 45.1217 53.3126 44.906C53.3482 44.8698 53.4563 44.763 53.4228 44.801C53.2599 44.9859 53.0906 45.1649 52.9243 45.3467C50.9547 47.4995 49.0291 49.6855 47.1475 51.9159C45.7937 53.5206 44.4045 55.1149 43.144 56.7955C43.0731 56.8901 42.8801 57.1808 42.9709 57.1051C43.6317 56.5544 44.2127 55.7395 44.7549 55.0955C47.0341 52.3878 49.3299 49.6962 51.6283 47.0047C52.7326 45.7116 53.8414 44.4178 54.8919 43.08C55.0591 42.8671 56.0026 41.8835 55.9518 41.4902C55.9229 41.2659 55.5004 41.5837 55.3064 41.7001C54.1681 42.3831 53.1146 43.2366 52.1006 44.0874C49.6915 46.1087 47.4506 48.3322 45.1694 50.4939C44.775 50.8676 44.0455 51.5656 43.59 51.9683C43.4967 52.0509 42.8332 52.642 43.2857 52.0208C44.8728 49.8417 46.6756 47.7853 48.391 45.7087C50.5096 43.1441 52.7349 40.6488 54.724 37.98C55.0731 37.5116 56.271 35.8738 54.808 36.8991C52.7106 38.3691 50.9015 40.3915 49.1308 42.2195C47.1348 44.2802 45.0153 46.3991 43.3067 48.7152C40.173 52.9631 49.8069 40.3963 53.045 36.2275C53.6364 35.4662 54.5777 34.249 55.1753 33.4467C55.6699 32.7825 56.3419 32.0275 56.6706 31.2482C56.7835 30.9806 56.6794 30.9824 56.4555 31.0908C55.6835 31.4647 54.9927 32.2494 54.3987 32.8275C51.9596 35.2013 49.6441 37.7015 47.3626 40.2257C46.1592 41.5571 45.9956 41.749 44.9018 42.9908C44.5199 43.4244 43.4788 44.736 43.6425 44.1819C43.7521 43.811 44.5096 42.6238 44.6079 42.4714C45.581 40.9639 46.6496 39.5149 47.7036 38.064C50.0786 34.7946 52.5336 31.5897 55.0126 28.3991C55.2281 28.1218 55.4852 27.8685 55.6422 27.5544C55.8539 27.1309 54.8756 28.113 54.5246 28.4306C52.0478 30.6719 49.7005 33.0566 47.3731 35.451C45.3427 37.5398 43.3924 39.6921 41.4283 41.8418C41.1647 42.1303 40.9455 42.4811 40.6098 42.6813C40.1153 42.976 41.1891 41.6849 41.5175 41.2121C43.7454 38.0045 46.1996 34.9571 48.7215 31.9775C50.8088 29.5116 52.9308 27.039 55.2277 24.763C55.422 24.5705 56.7247 23.3243 55.7314 24.275C53.1878 26.7099 50.7334 29.2328 48.3228 31.7991C46.6744 33.5539 45.0653 35.352 43.3697 37.0618C42.9044 37.5309 41.8776 38.4231 42.5406 37.0775C43.9042 34.3106 46.0209 31.8511 47.945 29.4695C49.741 27.2465 51.5673 24.9681 53.6956 23.0472C53.758 22.991 54.3077 22.5107 54.4932 22.4386C54.82 22.3115 54.2072 23.0872 53.9895 23.3621C51.8872 26.015 49.5682 28.5143 47.2419 30.9701C45.5179 32.79 43.7854 34.6248 41.9635 36.3482C41.8061 36.4971 41.6546 36.6543 41.4808 36.7837C41.2779 36.9347 41.1728 36.9051 41.2709 36.6263C41.685 35.4497 42.5523 34.3042 43.2437 33.2997C46.3618 28.7698 50.1492 24.8131 53.8163 20.7386C57.0032 17.1976 47.1355 27.5318 43.7737 30.9071C43.2532 31.4297 42.2221 32.4859 41.591 33.0007C40.2248 34.1149 41.7237 31.9463 41.7431 31.9146C41.9919 31.5076 42.2694 31.1179 42.5039 30.7025C42.6374 30.466 42.8704 30.2331 42.845 29.9627C42.8268 29.7691 40.8097 31.5334 40.7619 31.5788C40.7533 31.587 39.0897 33.2264 39.7388 32.1769C40.831 30.4108 42.1374 28.7347 43.3697 27.0716C45.0742 24.7712 46.8006 22.4846 48.6376 20.2874C50.0039 18.6531 51.5726 17.1713 52.8981 15.5074C52.9864 15.3965 53.155 15.1738 52.8981 15.3815C52.173 15.9677 51.5253 16.7144 50.8833 17.3806C48.1476 20.2191 45.4295 23.0766 42.7348 25.954C42.253 26.4685 41.3584 27.4365 40.8354 27.9846C40.3997 28.4412 39.8379 29.1772 39.2561 29.4905C39.1455 29.55 39.2744 29.2303 39.34 29.1232C40.0794 27.9155 40.9938 26.783 41.8481 25.6602C43.8799 22.9898 45.989 20.384 48.2283 17.8843C48.9818 17.0432 51.2362 14.5473 50.6419 15.5074C50.1348 16.3265 49.2926 17.0918 48.6586 17.7898C47.2761 19.3118 45.8893 20.8304 44.4978 22.3441C42.6242 24.3822 40.7098 26.3787 38.7524 28.3361C38.4935 28.595 38.2713 28.9011 37.9653 29.1022C37.4602 29.4342 38.7126 28.1515 39.1039 27.6908C43.1027 22.9834 47.3708 18.5221 51.5234 13.9543C54.5657 10.6078 45.1369 20.3609 41.8795 23.4985C40.233 25.0845 38.601 26.7878 36.7795 28.1787C36.3183 28.5309 36.4247 28.2469 36.6274 27.8849C37.2565 26.7615 38.085 25.7301 38.8678 24.7158C42.4616 20.059 46.3365 15.7278 50.3166 11.4095C53.0392 8.45563 44.1602 16.5765 41.2079 19.3009C40.3333 20.1081 39.1398 21.1959 38.2277 21.9874C37.5753 22.5534 36.883 23.1996 36.1079 23.6087C35.9668 23.6831 35.6754 23.8419 35.6357 23.6874C35.5039 23.175 36.7108 21.7835 36.874 21.5676C38.5111 19.4013 40.3503 17.37 42.3098 15.4917C43.0293 14.8019 43.7637 14.1202 44.5345 13.4873C44.6588 13.3852 44.7852 13.2851 44.9175 13.1935C45.2212 12.9833 45.0336 13.1945 44.8913 13.3509C43.1314 15.2843 41.12 17.0224 39.2141 18.8077C37.4138 20.4941 35.6351 22.2383 33.6943 23.7661C33.5333 23.8928 33.1526 24.2903 33.1696 24.0861C33.2119 23.5785 34.6346 22.1715 34.8277 21.9454C37.2733 19.0819 39.8696 16.3499 42.5879 13.7444C43.9706 12.4191 43.3758 13.0121 44.5817 11.866C44.9225 11.5422 45.9782 10.6436 45.5524 10.8429C45.2189 10.999 44.9689 11.2929 44.6919 11.5355C43.5631 12.5237 42.4711 13.5546 41.3653 14.5682C38.8909 16.8365 36.4228 19.1174 33.9042 21.3367C33.1323 22.0169 32.3517 22.706 31.5326 23.3306C31.3081 23.5018 30.9652 23.7184 31.2807 23.2466C32.5858 21.2951 34.3439 19.549 35.919 17.8213C38.0531 15.4804 40.2768 13.2258 42.5092 10.9793C43.0811 10.4038 44.8818 8.85774 44.1305 9.16385C43.9268 9.24684 43.3125 9.77728 43.3119 9.77774C41.8594 10.9785 40.4423 12.2243 39.0252 13.4663C36.515 15.6664 34.0528 17.9238 31.4276 19.9883C31.4271 19.9887 28.6266 22.2675 29.2974 21.0849C30.7339 18.5523 33.0353 16.3522 35.09 14.3321C37.3844 12.0763 39.8586 10.0272 42.2206 7.84687C43.2059 6.93738 40.1365 9.53464 39.0882 10.3706C36.5878 12.3646 34.1267 14.4187 31.5588 16.3259C31.1319 16.643 30.4799 17.1203 29.9952 17.4225C29.5484 17.7012 29.4547 17.638 29.8011 17.1917C31.2781 15.2884 33.1518 13.6412 34.8696 11.9657C35.8612 10.9986 36.8375 10.0514 37.8342 9.0904C38.4532 8.4935 40.3292 6.75249 39.6024 7.21199C38.8483 7.68871 36.3342 9.65026 36.024 9.87744C35.1755 10.4987 34.3472 11.1535 33.4477 11.6981C32.2857 12.4017 31.8057 13.0157 31.4224 11.7978C31.1995 11.0893 31.699 10.4584 30.4622 11.0527C28.945 11.7818 27.8214 13.1283 26.4431 14.054C26.4128 14.0743 26.332 14.0201 26.3539 13.991C26.921 13.2348 29.7176 10.2301 29.7958 10.145C31.5014 8.29035 33.3461 6.48345 34.9536 4.53606C35.0287 4.44507 35.1924 4.2083 34.9116 4.32618C34.0164 4.70203 33.1407 5.36 32.3406 5.88452C29.9397 7.45858 27.6153 9.14645 25.2258 10.7379C24.8506 10.9878 23.3973 11.9493 22.9276 12.2281C22.1311 12.7008 21.7953 12.7729 22.7545 11.7663C23.9247 10.5384 25.9448 8.6499 27.0674 7.58977C27.8924 6.81076 28.7231 6.03784 29.5492 5.26013C30.0914 4.74976 31.815 3.36261 31.1548 3.70704C30.7179 3.93497 30.3902 4.32896 30.0005 4.6305C28.8395 5.52884 27.638 6.37266 26.4378 7.21724C25.7738 7.68448 24.6661 8.46542 23.9508 8.93823C23.5592 9.19704 22.6347 9.95105 23.2214 9.00644C23.452 8.63526 24.0156 7.94363 23.6202 7.75767C23.3493 7.63026 23.0194 7.75754 22.723 7.79965C22.3244 7.85628 21.3018 8.18761 21.5162 7.84687C21.7072 7.54329 22.0205 7.33609 22.2875 7.09656C23.0997 6.36787 23.9499 5.68236 24.764 4.95581C25.3704 4.41471 26.1201 3.83606 26.6267 3.18235C27.2029 2.4389 25.0242 4.17235 24.2708 4.73544C22.5844 5.99588 20.9226 7.28911 19.2285 8.53947C19.0183 8.69464 17.7938 9.49564 17.8066 9.47867C18.5549 8.48551 19.5459 7.66659 20.3776 6.74502C20.3941 6.72668 21.8495 5.03545 21.3116 5.23915C19.7972 5.81254 18.4045 7.24703 17.198 8.26138C16.5257 8.82659 15.7801 9.47061 15.1202 10.0611C14.8166 10.3327 14.043 10.8822 13.8819 11.3361C13.6093 12.1042 15.247 10.432 15.8443 9.87744" stroke="#FFFA80" stroke-linecap="round"/>
<path d="M7.25032 16.4892C6.30262 17.1019 6.37036 16.8351 7.09292 15.8701C8.0183 14.6342 9.07456 13.4844 10.2096 12.4386C10.2488 12.4025 11.3321 11.3306 11.5738 11.3997C11.8025 11.465 11.3104 11.7975 11.154 11.9768C10.7834 12.402 9.71723 13.577 9.43305 13.892C8.26578 15.1859 7.09445 16.477 5.94908 17.7904C5.2492 18.593 4.44926 19.4183 3.91327 20.351C3.23438 21.5322 6.04216 18.6449 7.02995 17.7065C8.82877 15.9976 10.605 14.2378 12.4658 12.596C12.8518 12.2554 11.7609 13.3464 11.4111 13.7241C9.41813 15.8761 7.40953 18.0215 5.50309 20.2513C5.47281 20.2867 4.59286 21.184 4.61636 21.5053C4.64843 21.9436 5.39066 21.0742 5.71822 20.7812C8.02905 18.7141 10.1637 16.4577 12.513 14.4324C12.6738 14.2938 12.8362 14.157 13.001 14.0231C13.1237 13.9234 13.2943 13.6238 13.3892 13.7503C13.4193 13.7904 13.344 13.8401 13.3158 13.8815C13.1568 14.1143 12.8278 14.5213 12.6809 14.7C10.869 16.9042 8.86073 18.935 7.08242 21.1695C6.71251 21.6343 6.29789 22.1131 5.98581 22.6229C5.94285 22.693 5.89563 22.89 5.97532 22.8695C6.23597 22.8025 6.65741 22.4251 6.78859 22.3133C8.78101 20.6149 10.5435 18.653 12.4973 16.909C12.8232 16.6181 13.0983 16.3777 12.6442 16.9772C11.5647 18.4021 10.4291 19.7885 9.27564 21.1537C8.3367 22.265 7.36763 23.3506 6.4318 24.4645C6.06653 24.8993 5.31617 25.601 5.17254 26.196C5.0745 26.6022 5.88493 25.7512 6.19569 25.472C7.78502 24.0436 9.28726 22.5224 10.8287 21.0435C11.7437 20.1658 12.6776 19.3075 13.6411 18.483C14.0458 18.1368 15.2212 17.1299 14.9738 17.6016C14.6232 18.2701 13.9215 18.9424 13.4522 19.5009C12.3959 20.7582 11.3051 21.9822 10.2096 23.2053C9.06835 24.4794 7.92951 25.7545 6.82007 27.0565C6.33079 27.6308 5.75116 28.2139 5.32995 28.8457C5.22554 29.0023 5.65886 28.6582 5.80217 28.5362C6.87513 27.6226 7.89631 26.6507 8.91885 25.6818C9.946 24.7086 10.9686 23.7312 12.0355 22.8013C12.4321 22.4556 13.5893 21.3967 13.2633 21.8096C11.8258 23.6305 10.0838 25.261 8.50959 26.9621C7.67967 27.8589 6.85739 28.7621 6.07501 29.701C5.78868 30.0446 4.90123 30.9083 5.34044 30.8238C5.76931 30.7414 6.38667 30.0563 6.65217 29.8164C8.05388 28.5502 9.39937 27.2234 10.8182 25.9757C11.554 25.3287 12.3082 24.6985 13.1059 24.1287C14.11 23.4115 13.2892 24.2961 13.0324 24.601C11.4521 26.4776 9.80296 28.2911 8.16329 30.1155C7.5972 30.7454 7.01381 31.3673 6.47378 32.0201C5.79633 32.8391 6.58265 32.2171 6.89353 31.9572C7.84128 31.1647 8.76574 30.3413 9.69539 29.5278C10.7407 28.6132 11.7538 27.5345 12.9118 26.7575C13.4076 26.4247 13.2446 26.8092 13.0744 27.0985C12.4666 28.1317 11.6414 29.0546 10.8812 29.9738C10.0998 30.9188 9.30408 31.8523 8.54107 32.8124C8.07326 33.4011 7.33463 34.1394 7.05619 34.8587C6.93832 35.1632 7.63281 34.5421 7.87996 34.3288C9.45859 32.966 10.9341 31.4822 12.4763 30.0788C13.3489 29.2847 14.2245 28.4678 15.1627 27.7491C15.9016 27.1832 15.5816 27.6859 15.2676 28.0744C13.35 30.4476 11.3959 32.7843 9.517 35.1893" stroke="#FFFA80" stroke-linecap="round"/>
<path d="M8.19474 41.233C8.08463 41.4532 8.18716 41.246 8.64598 40.7083C9.38975 39.8366 10.0868 39.0172 10.8392 38.1478C11.418 37.4789 13.1898 35.5033 12.6022 36.1644C11.0265 37.9371 9.58342 39.8571 8.11079 41.7157C8.08438 41.749 6.63871 43.4395 7.26079 43.2583C8.25755 42.968 7.51795 44.0466 7.74351 44.57C7.93323 45.0103 10.4416 42.2453 10.5873 42.0935C11.7077 40.9267 12.845 39.7755 14.0083 38.6515C14.1509 38.5137 14.6692 38.0209 14.8688 37.8435C14.9515 37.77 15.0726 37.5682 15.1417 37.6546C15.2975 37.8494 13.9039 39.3392 13.8824 39.3651C11.937 41.7039 10.886 42.9973 9.06882 45.4379C8.88385 45.6864 8.47841 46.4087 8.77499 46.3194C9.79125 46.0136 9.82223 46.0116 10.6083 45.3676C12.2214 44.0461 13.7392 42.6095 15.2361 41.1595C16.1095 40.3135 16.9318 39.3195 17.8963 38.5728C18.2631 38.2888 17.3655 39.3351 17.0673 39.6904C15.9172 41.0609 14.7366 42.4054 13.5886 43.7777C12.5337 45.0387 11.4749 46.2987 10.4404 47.5765C10.1634 47.9187 9.92037 48.2204 9.67438 48.5787C9.59998 48.687 9.37682 48.9571 9.50648 48.9355C9.75388 48.8942 9.91656 48.6449 10.1046 48.479C10.6718 47.9785 11.1152 47.5458 11.6682 47.0046C13.2367 45.4695 14.7807 43.9119 16.38 42.4083C17.4101 41.4398 18.4868 40.2123 19.7065 39.4648C20.9911 38.6774 18.2975 42.1393 17.4189 43.3632C16.2384 45.0077 14.572 47.2738 13.3787 48.9355C12.9747 49.4981 11.656 51.067 12.2139 50.6565C12.6454 50.339 12.9162 49.8473 13.2633 49.4392C13.8966 48.6947 14.3974 48.1015 15.0472 47.3614C16.2578 45.9826 17.5108 44.6426 18.7726 43.3108C19.0116 43.0584 19.6307 42.4028 19.9269 42.125C20.0373 42.0214 20.3126 41.722 20.3047 41.8731C20.2908 42.1367 20.0392 42.3305 19.8849 42.5447C19.563 42.9917 19.0387 43.6735 18.7096 44.0873C17.5026 45.6048 16.2316 47.07 15.0263 48.5892C14.1716 49.6663 13.3397 50.7633 12.5287 51.8738C11.8499 52.8033 12.7246 52.1262 13.1216 51.7741C15.9597 49.2565 18.4568 46.3552 21.2176 43.7515C21.6435 43.3498 22.802 42.0791 22.5504 42.6077C22.1448 43.4593 21.1549 44.3288 20.567 45.0265C18.1327 47.9156 16.4352 49.7617 14.4049 52.962C14.0437 53.5315 14.0244 53.812 14.7145 53.3031C16.4338 52.0353 16.8649 51.3095 18.3318 49.775C19.8769 48.1587 21.4098 46.5291 22.9911 44.9478C23.1936 44.7453 23.6884 44.2566 23.9355 44.0453C24.0332 43.9619 24.2805 43.7283 24.2713 43.8564C24.2524 44.1222 24.0184 44.3261 23.8726 44.549C23.5231 45.0836 23.0205 45.8091 22.6658 46.312C21.5377 47.9114 20.3856 49.491 19.2973 51.1182C18.4518 52.3822 17.5826 53.6502 16.8417 54.9799C16.691 55.2505 16.3622 55.9945 16.9886 55.4732C18.2235 54.4455 19.2454 53.0576 20.3047 51.8633C21.9082 50.0554 23.4832 48.2044 25.2368 46.5376C25.4935 46.2936 26.1889 45.6224 25.6408 46.4694C24.8688 47.6626 23.9763 48.7824 23.1433 49.9324C21.8352 51.7381 20.548 53.5605 19.3182 55.4207C19.0374 55.8455 18.2055 57.0405 18.6519 56.7954C19.8358 56.1454 20.8615 54.866 21.7895 53.9253C23.3409 52.353 24.8683 50.7566 26.4121 49.1768C27.047 48.5272 27.7197 47.8869 28.2852 47.1725C28.9065 46.3878 27.0156 48.72 26.3911 49.5021C24.5445 51.8149 22.6524 54.1379 21.0287 56.617C20.9029 56.8091 20.5838 57.362 21.1127 57.0053C22.1645 56.2959 23.0535 55.2674 23.9355 54.3713C25.1622 53.125 26.3667 51.8565 27.6084 50.625C27.9477 50.2885 28.8676 49.3088 28.7627 49.775C28.5737 50.6152 27.7189 51.5545 27.2516 52.2306C26.0415 53.981 24.828 55.7264 23.6417 57.4932C23.4721 57.7458 22.5512 58.7942 22.6605 59.188C22.698 59.3227 22.917 59.065 23.0173 58.9676C23.3436 58.6509 23.9206 58.0064 24.1769 57.7241C26.5316 55.131 28.8267 52.4992 31.1081 49.8432C31.7257 49.1242 31.251 49.8127 31.0609 50.0793C30.2323 51.2416 29.383 52.39 28.5266 53.5318C27.4702 54.9404 26.3974 56.336 25.3627 57.7608C25.0327 58.2153 24.2292 59.0236 24.1139 59.6287C24.0156 60.1452 24.8943 58.9225 25.2578 58.5426C26.5831 57.1575 27.877 55.7466 29.1562 54.3188C30.4132 52.9159 31.6771 51.5194 32.9393 50.1213C33.2237 49.8062 33.6058 49.3756 33.9152 49.0562C34.0291 48.9386 34.1489 48.6493 34.2877 48.7361C34.4141 48.815 30.0159 54.7995 29.7124 55.2161C28.915 56.3106 28.0529 57.3885 27.3408 58.5426C26.4987 59.9074 28.2432 58.3247 28.4689 58.1071C31.535 55.1501 34.2759 51.8695 37.4516 49.0194C37.8068 48.7007 38.7889 47.8859 38.7214 48.3583C38.5903 49.2759 37.7793 50.2785 37.3047 51.0238C36.265 52.6564 35.1508 54.2357 34.0097 55.7985C33.3932 56.6428 32.6692 57.4839 32.1732 58.4114C31.8495 59.017 33.2932 57.6063 33.7788 57.1207C34.8576 56.0419 36.3368 54.5068 37.3782 53.4164C37.8703 52.901 38.3587 52.382 38.8473 51.8633C39.201 51.4877 40.1219 50.3051 39.9702 50.7981C39.687 51.7186 39.0433 52.4878 38.6322 53.3586C38.4255 53.7966 38.1434 54.2256 38.0918 54.7071C38.0771 54.8441 38.3431 54.9299 38.4695 54.875C38.9614 54.6616 40.3886 53.2975 40.6995 53.0176C41.1894 52.5765 41.7733 52.0484 42.2946 51.6219C42.3139 51.6061 43.4663 50.6223 43.1393 51.3963C42.6308 52.5998 41.5664 53.689 40.7362 54.6651C39.6094 55.99 38.4235 57.2656 37.2208 58.5216C37.0664 58.6829 36.2979 59.6812 35.9773 59.6812C35.8355 59.6812 36.1315 59.4424 36.2239 59.3349C36.5872 58.9119 37.1439 58.3052 37.4884 57.9287C39.232 56.0229 40.9927 54.1326 42.7406 52.2306C43.2935 51.6288 43.8989 50.7039 44.5875 50.2367C44.7611 50.1189 44.3443 50.5794 44.2097 50.7404C43.7903 51.2422 43.1469 51.9724 42.7406 52.4404C40.1737 55.3972 38.7201 57.4344 36.3214 60.5281C36.2069 60.6758 36.0927 60.8237 35.9751 60.9689C35.9283 61.0266 35.8901 61.178 35.8282 61.1368C35.7668 61.0958 35.9027 61.0093 35.9436 60.9479C36.0566 60.7783 36.1714 60.6099 36.2899 60.4442C37.5731 58.649 37.977 57.9474 39.372 56.2392C41.0587 54.1739 42.7289 52.0971 44.3566 49.9849C44.9717 49.1866 45.9803 47.863 46.5918 47.0256C47.0593 46.3855 47.6661 45.6582 47.9717 44.9058C48.034 44.7527 48.122 44.5363 47.8458 44.6645C47.5028 44.8237 46.9614 45.3333 46.7492 45.525C44.9127 47.1838 43.2002 48.9868 41.5338 50.8139C38.0491 54.6344 35.8254 57.7111 32.255 61.4516C29.6777 64.1516 36.104 56.7752 38.5692 53.9725C40.8659 51.3615 43.201 48.7813 45.4375 46.1179C46.0916 45.3389 46.5744 44.7499 47.169 43.9509C47.4626 43.5562 48.1979 42.7462 48.2393 42.1774C48.25 42.0309 47.9264 42.0944 47.7986 42.1669C47.3753 42.4072 46.5483 43.0816 46.2455 43.3422C44.0146 45.263 42.0299 47.451 40.0331 49.6071C37.8264 51.9899 35.6102 54.3659 33.443 56.7849C32.7455 57.5634 32.0385 58.6417 31.1973 59.2929C30.6206 59.7394 32.0958 58.1437 32.5615 57.5824C34.6465 55.0696 36.7739 52.5946 38.9418 50.1528C41.1202 47.6991 43.3254 45.2694 45.5634 42.87C46.1719 42.2177 48.0608 40.3444 47.3369 40.8657C46.1155 41.7451 45.0092 43.1085 43.9578 44.1503C41.2287 46.8546 38.542 49.599 35.8776 52.367C34.1097 54.2036 32.3249 56.0289 30.6359 57.9392C30.2926 58.3275 29.9647 58.7293 29.618 59.1145C29.584 59.1522 29.4806 59.2623 29.5078 59.2195C29.5921 59.0866 29.6937 58.9653 29.7911 58.8417C33.9412 53.576 38.5157 48.6547 42.6881 43.4052C43.8384 41.958 44.9094 40.5943 45.9517 39.0765C46.4116 38.4068 47.2815 37.251 47.3421 36.3166C47.406 35.3312 46.8903 34.9559 46.0881 34.5379C45.7006 34.336 45.2748 34.2092 44.8498 34.1076C42.6083 33.572 44.8319 34.2375 43.1393 34.0552" stroke="#FFFA80" stroke-linecap="round"/>
<path d="M46.7283 24.4218C46.8673 24.2631 48.6819 22.212 49.0579 21.7249C49.7884 20.7785 47.4108 23.4587 46.6181 24.3536C44.9375 26.2506 43.2335 28.1282 41.5653 30.036C41.4746 30.1397 40.6136 31.2463 40.6995 31.2113C41.1474 31.0289 41.6468 30.5192 41.985 30.2249C43.2674 29.1089 44.4815 27.9204 45.6894 26.7252C47.9219 24.516 50.1438 22.2982 52.4264 20.1403C52.8913 19.7008 53.3542 19.2538 53.8326 18.8286C53.8698 18.7955 53.9373 18.6856 53.9481 18.7341C53.9971 18.9549 53.6675 19.0892 53.5178 19.2588C49.5222 23.7858 45.0766 27.9238 40.9147 32.2974C40.8457 32.37 40.3749 32.8673 40.2011 33.0163C39.9896 33.1975 40.5072 32.5496 40.6838 32.3342C42.6047 29.9907 44.6669 27.7405 46.7912 25.5814C49.0108 23.3254 51.3548 21.1378 53.8746 19.2168C54.1831 18.9816 55.0156 18.3178 54.9135 18.6921C54.7368 19.3398 53.8705 20.1156 53.4548 20.56C51.047 23.1349 48.3449 25.4577 45.6894 27.7693C44.3499 28.9353 42.9918 30.0782 41.6073 31.1903C41.0486 31.6391 40.415 32.2676 39.7498 32.5755C39.4845 32.6984 39.5605 32.5242 39.6344 32.3499C39.9565 31.5908 40.4994 30.8719 40.9357 30.1829C42.6257 27.5134 44.2371 24.8146 45.7838 22.0607" stroke="#FFFA80" stroke-linecap="round"/>
<path d="M43.1385 14.8836C42.2656 15.6037 41.4288 16.5423 40.6567 17.3391C39.7367 18.2885 36.9576 21.0849 38.028 20.3089C38.7215 19.8061 39.306 19.0743 39.8906 18.4567C41.1187 17.1593 42.3605 15.8764 43.6107 14.6002C44.4088 13.7856 45.2046 12.9689 45.9928 12.1447C46.2083 11.9193 46.4415 11.7087 46.6329 11.4626C46.6857 11.3947 46.4716 11.5273 46.4021 11.578C44.0094 13.323 41.9015 15.4106 39.644 17.3182C39.1176 17.763 38.5916 18.2139 38.0542 18.6456C37.6825 18.9442 37.5588 18.9192 37.9283 18.4987C40.1074 16.019 42.5959 13.8101 44.9277 11.4783C45.443 10.963 45.9808 10.443 46.444 9.878C46.4796 9.83464 46.5035 9.68274 46.4545 9.7101C46.1822 9.86228 45.5092 10.3786 45.3422 10.5076C42.7593 12.5035 40.2682 14.6137 37.7236 16.657C37.3554 16.9527 36.9411 17.3612 36.5168 17.591C35.8877 17.9318 37.459 16.5124 37.965 16.0064C39.9652 14.0062 42.1096 12.1402 44.0567 10.0879C44.8648 9.23608 42.1329 11.4356 41.1971 12.1447C39.8441 13.1699 38.5487 14.2639 37.2409 15.3453C36.9829 15.5587 36.3802 16.0588 36.0656 16.2898C35.9407 16.3815 35.7068 16.6566 35.6563 16.5101C35.6334 16.4435 35.7037 16.3763 35.7403 16.316C35.9616 15.9512 36.4259 15.3666 36.648 15.0882C37.9209 13.4925 39.288 11.9748 40.5832 10.3974C41.6412 9.10889 42.687 7.80269 43.6789 6.46225C43.9812 6.0537 44.7815 4.92694 44.2928 5.06656C43.4553 5.30586 42.5784 6.08044 41.9212 6.58293C39.8124 8.1953 37.8178 9.96122 35.8452 11.7354C34.1297 13.2784 29.1137 18.0472 30.7452 16.4157C32.7131 14.4478 34.8039 12.5872 36.8684 10.7228C38.2903 9.43866 39.7356 8.18168 41.1761 6.91873C41.3506 6.7658 42.073 6.13383 42.3147 5.91132C42.3884 5.84347 42.4801 5.78842 42.5298 5.70144C42.5539 5.65933 42.4392 5.73783 42.3986 5.76441C39.8321 7.44592 37.4417 9.54023 35.1002 11.515C33.6461 12.7413 32.2388 14.0165 30.8292 15.2928C30.7323 15.3805 29.6903 16.3358 30.4199 15.5132C32.7088 12.9327 35.0841 10.426 37.498 7.96287C38.2951 7.14947 39.2456 6.34053 39.9273 5.41811C40.1828 5.07255 39.0881 5.65405 38.7258 5.88509C35.8604 7.71229 33.2716 10.094 30.7662 12.3755C29.6936 13.3523 28.6359 14.3532 27.618 15.3873C27.5615 15.4447 27.4136 15.6297 27.4816 15.5867C27.6843 15.4585 28.1606 15.0672 28.2896 14.957C31.137 12.5269 33.8317 9.91497 36.669 7.46966C37.9863 6.33436 39.3334 5.2291 40.6252 4.0644C40.6941 4.00228 40.897 3.81434 40.8193 3.86502C40.5705 4.02728 40.3372 4.2122 40.0952 4.38446C36.4961 6.94656 33.0224 9.65591 29.5909 12.4385C28.0517 13.6866 26.5284 14.9561 24.9736 16.1848C24.8795 16.2592 23.4369 17.4118 24.2915 16.3947C27.105 13.046 30.4661 10.0669 33.7202 7.16009C34.1308 6.7933 35.145 5.88825 35.6721 5.46533C35.8145 5.35106 36.5661 5.0013 35.3205 5.74867C34.5276 6.22443 33.3859 6.73433 33.3162 5.44434C33.2801 4.77702 32.4869 5.59485 32.2458 5.7749C30.2899 7.23592 28.4234 8.82719 26.5162 10.3502C23.3828 12.8524 20.2558 15.3597 16.8828 17.528" stroke="#FFFA80" stroke-linecap="round"/>
<path d="M23.5889 6.6665C23.6 6.65629 24.2648 6.02006 23.8827 6.57205C22.8913 8.00404 21.5375 9.23298 20.3095 10.4548C19.5535 11.207 18.7929 11.9583 18.0166 12.69C17.8452 12.8516 17.6911 13.0442 17.4814 13.1517C17.4074 13.1896 17.5283 12.989 17.5759 12.9208C19.208 10.5835 21.4836 8.61198 23.5469 6.67175C24.4114 5.85878 25.3701 4.75971 26.4379 4.1847C27.254 3.7453 25.2402 5.60115 24.5963 6.26773C21.0193 9.97049 17.3155 13.5467 13.8086 17.3178C12.4019 18.8304 8.29452 23.4527 9.8209 22.061C10.5348 21.4101 11.1623 20.5784 11.8042 19.8678C13.8494 17.6038 15.9251 15.3644 18.0586 13.1832C20.2222 10.9712 22.4457 8.81978 24.7747 6.78193C25.6936 5.97789 25.6025 6.08589 26.4012 5.39674C26.4903 5.31988 26.5857 5.24885 26.6636 5.16063C26.69 5.1307 26.5904 5.19415 26.5586 5.21835C22.4359 8.35944 18.5366 11.9023 14.7058 15.3869C12.983 16.954 11.2859 18.5481 9.54806 20.0986C8.82201 20.7465 7.36992 22.0222 6.58879 22.6906C6.16917 23.0497 5.81136 23.5257 5.29804 23.7295C5.24039 23.7524 5.33087 23.6073 5.36625 23.5564C5.66308 23.129 6.50735 22.1741 6.7357 21.9141C8.65857 19.7247 10.6747 17.6254 12.8221 15.6545C15.5021 13.195 18.292 10.7961 21.2435 8.66558C21.6282 8.3879 22.5259 7.71874 23.1166 7.53749C23.5827 7.39448 23.3491 7.75894 23.2268 7.97299C22.4858 9.26972 21.3753 10.4611 20.4197 11.5881C17.672 14.8286 14.7831 17.9494 11.9407 21.1061C10.3827 22.8362 8.8269 24.5677 7.30762 26.332C7.26333 26.3834 5.50459 28.1548 5.64434 28.4518C5.66376 28.493 5.74024 28.4832 5.78076 28.4623C6.17648 28.2578 6.96284 27.554 7.17644 27.3604C9.53736 25.2205 11.7304 22.8879 13.903 20.5604C18.0935 16.071 22.208 11.5113 26.4222 7.04428" stroke="#FFFA80" stroke-linecap="round"/>
<path d="M22.7385 16.8672C22.0931 19.9297 20.0495 22.7424 18.457 25.3462C16.3089 28.8584 13.9812 32.2659 11.8668 35.7981C11.629 36.1955 10.8097 37.4848 12.0033 36.795C13.623 35.859 14.9993 34.3852 16.3372 33.1117C20.1972 29.4376 23.9069 25.6114 27.7441 21.9147C28.8835 20.8171 30.0373 19.6988 31.333 18.7823C32.0315 18.2882 33.1611 17.7059 32.2459 19.1181C31.1902 20.7472 29.8647 22.2241 28.636 23.7197C26.8178 25.933 24.9944 28.1407 23.2317 30.399C20.3386 34.1055 17.4533 37.904 15.0465 41.9528C14.8093 42.3518 14.122 43.4911 14.5113 43.2383C15.3012 42.7252 16.0468 41.5327 16.5786 40.8404C20.8364 35.2976 24.9148 29.6169 29.7274 24.5277C30.8741 23.3151 32.0619 22.1222 33.2953 20.9965C33.3861 20.9137 33.6291 20.6483 33.5787 20.7604C33.3152 21.3459 32.7363 21.7296 32.3089 22.2086C28.7503 26.1965 25.1328 30.1323 21.6681 34.2031C20.1857 35.9448 18.7155 37.7013 17.2922 39.492C16.6323 40.3221 15.912 41.1827 15.3928 42.1154C15.1658 42.5232 15.0799 42.9631 15.7286 42.6611C16.5 42.302 17.1361 41.7053 17.7434 41.129C19.0078 39.9293 20.2771 38.4971 21.4425 37.2253C25.1411 33.1888 28.857 29.1169 33.2061 25.7607C33.531 25.5101 33.856 25.2585 34.1978 25.0314C34.4051 24.8937 34.9381 24.5635 34.9114 24.811C34.8339 25.5292 33.5834 26.7675 33.2219 27.1984C29.8259 31.245 26.0923 35.1919 22.0984 38.6525C20.8257 39.7552 19.4573 40.8622 17.8903 41.5278C17.3073 41.7754 16.5039 41.9811 15.8545 41.9895C14.5519 42.0064 15.7285 41.8578 14.6162 41.7062" stroke="#FFFA80" stroke-linecap="round"/>
<path d="M9.7052 31.1279C8.09676 33.0145 6.57824 34.9744 5.05642 36.931C3.68758 38.691 5.46772 36.3257 5.69655 36.0076C6.57523 34.786 7.47987 33.5853 8.40396 32.3977C8.9194 31.7352 9.0538 31.5709 9.5373 30.96C9.70512 30.748 10.2738 30.2264 10.0148 30.3041C9.57202 30.437 8.94804 31.3529 8.66631 31.6579C7.56103 32.8544 6.48186 34.0752 5.41321 35.3045C5.13533 35.6241 4.3604 36.6207 4.56321 36.2489C5.23985 35.0084 6.18888 33.8344 6.98729 32.6705C7.92969 31.2967 8.92721 29.9616 9.86261 28.5832C9.869 28.5737 10.6781 27.164 10.6549 27.1717C9.97546 27.3982 9.12388 28.5912 8.67156 29.0659C7.11471 30.6996 5.64525 32.4108 4.19592 34.1397C4.14092 34.2053 3.3464 35.2486 3.45086 35.1681C4.67485 34.2238 5.68678 32.8256 6.69346 31.6736C7.83805 30.3638 9.02972 29.061 10.0567 27.6544C10.1799 27.4858 10.4642 26.9605 10.2876 27.072C8.97762 27.8994 7.88187 29.3231 6.77742 30.3724" stroke="#FFFA80" stroke-linecap="round"/>
<path d="M5.55062 22.439C5.38285 22.597 3.77815 24.1748 4.92624 23.4464C5.03813 23.3754 6.9131 22.1349 6.93056 22.2921C6.95508 22.5127 6.64876 22.9306 6.55803 23.0791C6.13071 23.7784 5.64731 24.442 5.15185 25.0939C4.35622 26.1408 3.32767 27.1221 2.65956 28.2578C2.36508 28.7585 3.99578 27.4327 4.01327 27.4183C4.58893 26.946 5.14991 26.4589 5.69754 25.9544C5.97433 25.6994 6.27558 25.3296 6.621 25.1569C6.78138 25.0767 6.52952 25.5101 6.43211 25.6606C6.01488 26.3054 5.55488 26.9226 5.08364 27.5285C4.14004 28.7417 2.9367 28.9071 2.20308 30.2696C1.79128 31.0343 3.27162 31.0208 3.34691 30.9705C4.3655 30.2899 5.35066 29.3166 6.46359 28.7983C6.58355 28.7424 6.47617 29.0766 6.41112 29.1918C6.1582 29.6398 5.8782 30.0743 5.60309 30.5088C4.93032 31.5713 4.02671 32.6863 3.61975 33.8878C3.31504 34.7874 5.37578 33.0684 5.44568 33.0063C6.37832 32.1773 7.61453 31.2145 8.25804 30.1205C9.14588 28.6112 6.01136 32.933 5.55062 34.6224" stroke="#FFFA80" stroke-linecap="round"/>
<path d="M5.54929 39.4385C3.90222 40.994 8.29938 35.8356 9.75208 34.0971C10.6936 32.9703 11.6332 31.8394 12.6117 30.7443C13.1521 30.1394 13.5849 29.6539 13.9549 28.9551" stroke="#FFFA80" stroke-linecap="round"/>
<path d="M5.92817 38.2112C5.40005 38.5169 6.50076 37.1313 6.83589 36.6213C7.61683 35.4329 8.41659 34.2489 9.33868 33.1636C9.85191 32.5595 10.4484 32.0352 10.9337 31.4111" stroke="#FFFA80" stroke-linecap="round"/>
<path d="M6.11719 39.911C6.73593 39.8316 7.70989 38.7342 8.02707 38.4313C9.18164 37.329 10.2588 36.1688 11.2592 34.9264C11.4069 34.7429 11.9957 34.1956 11.8783 33.9609" stroke="#FFFA80" stroke-linecap="round"/>
<path d="M6.11719 41.6108C8.18622 39.4887 9.95295 37.0648 11.9518 34.8737C12.5521 34.2156 13.1839 33.5949 13.7672 32.9219" stroke="#FFFA80" stroke-linecap="round"/>
<path d="M11.7827 48.4112C11.0368 48.5888 12.0119 47.7024 12.1185 47.5717C13.3741 46.033 14.6947 44.5575 15.9907 43.0541C17.4867 41.3188 19.0333 39.5668 20.2827 37.6445" stroke="#FFFA80" stroke-linecap="round"/>
<path d="M13.1055 49.4499C17.5711 45.049 21.475 40.1001 25.4777 35.2832" stroke="#FFFA80" stroke-linecap="round"/>
<path d="M48.1446 9.68945C45.5026 11.6818 42.7861 13.5749 40.1273 15.545C39.374 16.1032 38.5874 16.6257 37.9026 17.266C37.8084 17.3542 38.1125 17.1139 38.2279 17.0561" stroke="#FFFA80" stroke-linecap="round"/>
<path d="M48.3341 9.40527C46.7614 11.0463 44.6251 12.2167 43.3285 14.1275C42.9565 14.6757 44.2084 13.852 44.3674 13.7497" stroke="#FFFA80" stroke-linecap="round"/>
<path d="M49.5613 10.0664C47.0885 12.3035 44.4855 14.4779 42.2366 16.9504C42.1528 17.0425 41.9177 17.3323 42.0058 17.2442" stroke="#FFFA80" stroke-linecap="round"/>
<path d="M45.0277 7.7998C42.8535 10.5452 40.737 13.3324 38.6055 16.1109" stroke="#FFFA80" stroke-linecap="round"/>
<path d="M44.8402 7.42188C42.1045 10.2337 39.1164 12.7895 36.4189 15.6438C35.3755 16.7479 35.8074 16.3009 35.2593 17.008C35.1863 17.1022 35.3424 16.7841 35.3958 16.6775" stroke="#FFFA80" stroke-linecap="round"/>
<path d="M41.6273 6.28906C41.2532 7.34919 40.029 8.43804 39.3187 9.24833C38.2751 10.4388 37.1628 11.5511 36.0446 12.6693C35.7059 13.008 35.5465 13.21 35.9396 12.7113C36.6687 11.7865 37.3439 10.8283 38.0384 9.87796" stroke="#FFFA80" stroke-linecap="round"/>
<path d="M41.2509 6.28906C39.3005 8.30449 37.121 10.1073 35.0176 11.9558" stroke="#FFFA80" stroke-linecap="round"/>
<path d="M40.4957 3.45508C38.4588 4.91782 36.564 6.59336 34.6244 8.17732C33.6083 9.00715 32.5989 9.84571 31.5655 10.6539C-7.82316 41.4556 40.0014 4.25198 29.2568 12.144" stroke="#FFFA80" stroke-linecap="round"/>
<path d="M35.962 1.94434C33.4661 4.57728 30.7665 7.01961 28.123 9.49992" stroke="#FFFA80" stroke-linecap="round"/>
<path d="M33.3171 1.37793C29.9351 4.75995 26.713 8.32039 23.4004 11.7669" stroke="#FFFA80" stroke-linecap="round"/>
<path d="M31.0503 1C27.4907 3.8816 24.1836 7.12894 20.7559 10.1611" stroke="#FFFA80" stroke-linecap="round"/>
<path d="M29.8221 1.37793C25.894 6.71623 20.6548 11.1253 16.0332 15.828" stroke="#FFFA80" stroke-linecap="round"/>
<path d="M13.2168 28.8149C14.5888 28.0935 13.5803 28.6493 15.835 27.1954C16.251 26.9271 20.8876 23.8703 21.6517 23.6729C23.0346 23.3157 21.0183 26.5074 20.2886 27.7352C18.3448 31.0063 16.2443 34.0049 14.5664 37.4252C14.4463 37.6701 12.7154 40.927 14.8228 39.3012C15.7966 38.5499 18.5574 35.504 19.3034 34.6586C21.9286 31.6837 24.2023 28.4513 26.6452 25.3329C27.5473 24.1815 30.1694 20.6871 29.4591 21.9657C29.204 22.4248 28.8051 22.7876 28.4806 23.2006C26.9459 25.1539 25.4466 27.1356 23.9595 29.1253C21.1845 32.8382 18.3313 36.5429 15.889 40.4888C15.6848 40.8187 14.8773 42.1955 14.7013 42.7426C14.6729 42.8311 14.6429 43.0078 14.7351 43.0193C15.3347 43.0942 15.6879 42.269 16.1049 41.8316C21.5081 36.1656 26.3897 30.0529 32.138 24.7121C32.3935 24.4747 34.0557 22.9269 32.9208 24.4422C30.7738 27.3087 28.3201 29.9555 26.0716 32.7422C24.3799 34.8389 22.6739 36.9564 21.2064 39.2202C21.1938 39.2396 20.4569 40.3168 20.4708 40.6103C20.4745 40.6866 20.6279 40.7034 20.6935 40.6642C21.2733 40.3185 22.6702 38.8834 22.9473 38.5994C27.2888 34.1499 31.333 29.4234 35.5727 24.8808C36.0296 24.3913 34.8222 25.9912 34.4121 26.5206C31.7009 30.0199 28.9601 33.4941 26.328 37.0541C24.5281 39.4886 22.5472 41.9671 21.1794 44.686C21.0197 45.0035 20.6725 45.8481 21.0107 45.7387C21.2843 45.6502 21.5117 45.4505 21.7327 45.2663C22.6931 44.466 24.3945 42.7194 25.1472 41.9329C28.6154 38.3084 31.9369 34.548 35.431 30.9472C36.404 29.9445 37.994 28.3424 39.0479 27.3303C39.4107 26.982 39.7797 26.64 40.1546 26.3046C40.4122 26.0741 41.0765 25.3727 41.0048 25.7108C40.8814 26.2924 40.3645 26.7143 40.0061 27.1886C39.0766 28.4189 38.3094 29.3518 37.3137 30.5828C33.7905 34.9387 30.1318 39.2594 27.0636 43.9572C26.585 44.6899 25.6061 46.2993 27.1985 44.902C30.5299 41.9788 33.6147 38.7036 36.6524 35.4818C38.1214 33.9238 42.3561 29.0914 40.9171 30.6773C38.4295 33.4187 31.6138 42.0924 34.4323 39.6925C35.3828 38.8833 38.9842 35.1311 39.8307 34.3212C41.4232 32.7974 40.8362 33.6237 39.9656 34.807C37.4915 38.1701 34.8232 41.3605 32.5361 44.8615C32.2848 45.2462 31.6668 46.1901 31.4025 46.7037C31.1775 47.1408 31.3871 46.917 31.5509 46.6902C32.8081 44.9495 33.5109 42.9121 34.3513 40.9612" stroke="#FFFA80" stroke-linecap="round"/>
<path d="M31.213 10.8672C30.9897 10.8879 30.7821 10.9888 30.6302 11.1506C30.4783 11.3125 30.3929 11.5237 30.3903 11.7436L30.291 15.1101C30.2882 15.2271 30.3089 15.3434 30.352 15.4524C30.395 15.5615 30.4595 15.6612 30.5419 15.7458C30.6242 15.8304 30.7227 15.8983 30.8318 15.9456C30.9408 15.9928 31.0583 16.0186 31.1775 16.0213C31.2968 16.0241 31.4154 16.0037 31.5266 15.9615C31.6378 15.9193 31.7394 15.856 31.8257 15.7753C31.912 15.6946 31.9812 15.598 32.0294 15.491C32.0776 15.384 32.1038 15.2688 32.1066 15.1519L32.2059 11.7854C32.2105 11.6588 32.1875 11.5327 32.1385 11.4155C32.0894 11.2983 32.0154 11.1927 31.9214 11.1058C31.8274 11.0189 31.7156 10.9527 31.5935 10.9116C31.4713 10.8704 31.3416 10.8553 31.213 10.8672ZM20.7166 15.7779C20.5429 15.7895 20.3763 15.8499 20.2366 15.9519C20.097 16.0538 19.9901 16.1929 19.9289 16.3527C19.8676 16.5125 19.8544 16.6862 19.891 16.8531C19.9275 17.0201 20.0122 17.1732 20.135 17.2942L21.6385 18.8383C21.7164 18.937 21.8145 19.0186 21.9266 19.0777C22.0386 19.1368 22.1621 19.1721 22.289 19.1815C22.4159 19.1908 22.5433 19.1738 22.6631 19.1317C22.7829 19.0896 22.8923 19.0232 22.9842 18.937C23.0762 18.8507 23.1486 18.7465 23.1968 18.631C23.245 18.5155 23.268 18.3914 23.2641 18.2667C23.2603 18.1419 23.2298 18.0194 23.1745 17.907C23.1193 17.7946 23.0406 17.6948 22.9435 17.6141L21.4541 16.07C21.3619 15.9696 21.2475 15.8911 21.1197 15.8405C20.9919 15.7899 20.854 15.7685 20.7166 15.7779ZM41.7662 15.7779C41.527 15.7907 41.3027 15.8957 41.1421 16.07L39.6527 17.6141C39.5556 17.6948 39.4769 17.7946 39.4217 17.907C39.3665 18.0194 39.3359 18.1419 39.3321 18.2667C39.3282 18.3914 39.3512 18.5155 39.3994 18.631C39.4476 18.7465 39.5201 18.8507 39.612 18.937C39.704 19.0232 39.8134 19.0896 39.9331 19.1317C40.0529 19.1738 40.1804 19.1908 40.3072 19.1815C40.4341 19.1721 40.5576 19.1368 40.6696 19.0777C40.7817 19.0186 40.8798 18.937 40.9577 18.8383L42.4612 17.2942C42.5906 17.1664 42.6774 17.0031 42.7102 16.826C42.743 16.6488 42.7203 16.466 42.645 16.3018C42.5697 16.1376 42.4454 15.9996 42.2885 15.906C42.1316 15.8125 41.9495 15.7678 41.7662 15.7779ZM31.2981 17.5028C25.6593 17.5028 21.1137 22.0507 21.1137 27.6162C21.1137 29.9861 22.1335 31.9629 23.1705 33.6815C24.8159 36.4085 25.015 37.8112 25.0144 38.5225C25.0141 38.8782 24.9075 38.9708 24.9577 39.4685C24.9828 39.7173 25.26 40.1978 25.5818 40.3449C25.9036 40.492 26.0997 40.484 26.3052 40.484H36.291C36.4965 40.484 36.6927 40.492 37.0144 40.3449C37.3362 40.1978 37.6134 39.7173 37.6385 39.4685C37.6888 38.9708 37.5821 38.8782 37.5818 38.5225C37.5812 37.8112 37.7803 36.4085 39.4258 33.6815C40.4628 31.9629 41.4825 29.9861 41.4825 27.6162C41.4825 22.0507 36.937 17.5028 31.2981 17.5028ZM31.2981 19.2835C35.9468 19.2835 39.6669 22.9943 39.6669 27.6162C39.6669 29.4826 38.8533 31.1402 37.8655 32.7773C36.1093 35.6878 35.7654 37.4653 35.7662 38.5225C35.7663 38.6453 35.7771 38.5975 35.7804 38.7034H26.8158C26.8191 38.5975 26.8299 38.6453 26.83 38.5225C26.8309 37.4653 26.4869 35.6878 24.7307 32.7773C23.7429 31.1402 22.9293 29.4826 22.9293 27.6162C22.9293 22.9943 26.6494 19.2835 31.2981 19.2835ZM14.8868 24.1802C14.7676 24.1829 14.6501 24.2087 14.541 24.2559C14.4319 24.3032 14.3334 24.3711 14.2511 24.4557C14.1688 24.5403 14.1042 24.64 14.0612 24.7491C14.0182 24.8581 13.9975 24.9744 14.0002 25.0914C14.003 25.2083 14.0293 25.3235 14.0775 25.4305C14.1257 25.5375 14.1949 25.6341 14.2812 25.7148C14.3675 25.7955 14.4691 25.8588 14.5803 25.901C14.6915 25.9432 14.8101 25.9635 14.9293 25.9608L18.3903 26.0582C18.5095 26.0609 18.6281 26.0406 18.7393 25.9984C18.8505 25.9562 18.9522 25.8929 19.0385 25.8122C19.1247 25.7314 19.1939 25.6348 19.2422 25.5279C19.2904 25.4209 19.3166 25.3057 19.3194 25.1887C19.3222 25.0718 19.3015 24.9555 19.2584 24.8464C19.2154 24.7374 19.1509 24.6377 19.0686 24.5531C18.9862 24.4685 18.8877 24.4006 18.7787 24.3533C18.6696 24.306 18.5521 24.2803 18.4329 24.2776L14.9861 24.1802C14.953 24.1784 14.9198 24.1784 14.8868 24.1802ZM47.6102 24.1802L44.1634 24.2776C43.9226 24.2831 43.6939 24.3822 43.5277 24.5531C43.3614 24.724 43.2712 24.9526 43.2768 25.1887C43.2825 25.4249 43.3835 25.6491 43.5578 25.8122C43.732 25.9752 43.9651 26.0637 44.2059 26.0582L47.6669 25.9608C47.9077 25.9534 48.1356 25.8526 48.3005 25.6804C48.4654 25.5082 48.5539 25.2788 48.5463 25.0427C48.5388 24.8066 48.436 24.583 48.2604 24.4213C48.0848 24.2595 47.8509 24.1728 47.6102 24.1802ZM34.9293 24.7923C34.6901 24.8051 34.4658 24.9101 34.3052 25.0844L30.0357 29.6612L28.3761 28.3257C28.2846 28.2462 28.1777 28.1856 28.0618 28.1477C27.9459 28.1097 27.8233 28.095 27.7015 28.1046C27.5797 28.1142 27.461 28.1478 27.3528 28.2034C27.2445 28.259 27.1488 28.3355 27.0714 28.4283C26.994 28.5211 26.9365 28.6282 26.9023 28.7433C26.8682 28.8584 26.8581 28.9791 26.8726 29.0981C26.8872 29.2172 26.9261 29.3321 26.987 29.436C27.0479 29.5399 27.1296 29.6307 27.2272 29.7029L29.5393 31.5809C29.7185 31.7266 29.948 31.7992 30.1804 31.7837C30.4127 31.7682 30.63 31.6657 30.7875 31.4974L35.6527 26.2947C35.7792 26.1645 35.8626 25.9998 35.8919 25.8223C35.9211 25.6448 35.8948 25.4627 35.8165 25.3001C35.7382 25.1375 35.6116 25.0019 35.4532 24.9113C35.2948 24.8206 35.1122 24.7792 34.9293 24.7923ZM26.4187 41.8056C26.2995 41.812 26.1827 41.8413 26.075 41.892C25.9674 41.9426 25.8709 42.0135 25.7913 42.1007C25.7116 42.1879 25.6502 42.2897 25.6105 42.4001C25.5709 42.5106 25.5539 42.6277 25.5604 42.7446C25.567 42.8615 25.5969 42.976 25.6485 43.0816C25.7002 43.1872 25.7725 43.2817 25.8615 43.3599C25.9504 43.438 26.0541 43.4983 26.1668 43.5371C26.2794 43.5759 26.3988 43.5926 26.518 43.5862H36.0783C36.1985 43.5879 36.318 43.5661 36.4296 43.5221C36.5412 43.4781 36.6428 43.4128 36.7285 43.3299C36.8142 43.2471 36.8822 43.1484 36.9286 43.0395C36.9751 42.9307 36.999 42.8139 36.999 42.6959C36.999 42.5779 36.9751 42.4611 36.9286 42.3522C36.8822 42.2434 36.8142 42.1447 36.7285 42.0618C36.6428 41.979 36.5412 41.9137 36.4296 41.8697C36.318 41.8257 36.1985 41.8039 36.0783 41.8056H26.518C26.4849 41.8038 26.4518 41.8038 26.4187 41.8056ZM27.3265 45.033C27.2073 45.0393 27.0905 45.0687 26.9828 45.1193C26.8752 45.17 26.7787 45.2409 26.6991 45.3281C26.6194 45.4153 26.558 45.5171 26.5183 45.6275C26.4787 45.738 26.4617 45.855 26.4682 45.972C26.4748 46.0889 26.5047 46.2034 26.5563 46.309C26.608 46.4146 26.6804 46.5091 26.7693 46.5873C26.8582 46.6654 26.9619 46.7256 27.0746 46.7645C27.1872 46.8033 27.3066 46.82 27.4258 46.8136H35.1705C35.2907 46.8152 35.4102 46.7934 35.5218 46.7495C35.6334 46.7055 35.735 46.6401 35.8207 46.5573C35.9064 46.4745 35.9744 46.3758 36.0208 46.2669C36.0673 46.1581 36.0912 46.0413 36.0912 45.9233C36.0912 45.8053 36.0673 45.6885 36.0208 45.5796C35.9744 45.4708 35.9064 45.3721 35.8207 45.2892C35.735 45.2064 35.6334 45.1411 35.5218 45.0971C35.4102 45.0531 35.2907 45.0313 35.1705 45.033H27.4258C27.3927 45.0312 27.3596 45.0312 27.3265 45.033ZM29.8371 48.2742C29.7179 48.2806 29.6011 48.31 29.4935 48.3606C29.3858 48.4113 29.2894 48.4822 29.2097 48.5694C29.13 48.6566 29.0686 48.7583 29.029 48.8688C28.9894 48.9793 28.9724 49.0963 28.9789 49.2132C28.9854 49.3302 29.0153 49.4447 29.067 49.5503C29.1186 49.6558 29.191 49.7504 29.2799 49.8286C29.3688 49.9067 29.4726 49.9669 29.5852 50.0058C29.6979 50.0446 29.8172 50.0613 29.9364 50.0549H32.6598C32.7801 50.0565 32.8995 50.0347 33.0112 49.9907C33.1228 49.9468 33.2244 49.8814 33.3101 49.7986C33.3957 49.7158 33.4638 49.617 33.5102 49.5082C33.5566 49.3994 33.5805 49.2825 33.5805 49.1646C33.5805 49.0466 33.5566 48.9298 33.5102 48.8209C33.4638 48.7121 33.3957 48.6133 33.3101 48.5305C33.2244 48.4477 33.1228 48.3824 33.0112 48.3384C32.8995 48.2944 32.7801 48.2726 32.6598 48.2742H29.9364C29.9033 48.2725 29.8702 48.2725 29.8371 48.2742Z" fill="black"/>
</svg>
