<svg width="56" height="64" viewBox="0 0 56 64" fill="none" xmlns="http://www.w3.org/2000/svg">
<path d="M10.4174 9.99728C9.15471 9.99728 5.998 11.2469 5.05099 14.9957L3.15696 19.5776L0.947266 24.9926L2.20995 32.9068L6.94501 38.7384C8.62859 39.0161 12.6271 39.6548 15.1525 39.988C15.4681 44.5699 18.6248 47.9022 25.2539 48.3187C30.5572 48.652 33.9875 57.6214 35.0397 62.0645L39.1434 62.481V59.1487C39.0382 57.6214 39.0803 54.4835 40.0904 54.1503C45.1412 55.1499 48.5083 49.846 49.5606 47.0691C49.1397 45.8195 48.8661 42.8204 51.1389 40.8211C53.98 38.3218 54.927 32.0738 54.6113 29.5745C54.2956 27.0753 55.5583 24.1596 54.6113 21.2438C53.6643 18.328 51.4546 16.6619 51.1389 16.2453C50.8232 15.8288 50.1919 12.913 50.1919 12.08C50.1919 11.2469 49.5606 11.2469 48.6136 10.4138C47.6665 9.58075 47.9822 9.58075 47.9822 9.16421C47.9822 8.74767 46.7195 8.74767 46.4039 8.33114C46.0882 7.9146 45.7725 8.33114 45.1412 7.9146C44.5098 7.49806 43.8785 7.49806 43.2472 7.08152C42.6158 6.66499 42.9315 6.66499 42.6158 6.24845C42.3001 5.83191 42.3001 5.41537 41.9845 4.99884C41.7319 4.66561 41.2479 4.30461 41.0375 4.16576C40.7218 4.02692 40.0904 3.66592 40.0904 3.33269C40.0904 2.91615 39.7748 3.33269 39.4591 3.33269H37.5651H36.6181C35.9867 3.05499 34.6609 2.4163 34.4084 2.08307C34.1558 1.74985 32.83 1.38885 32.1987 1.25L30.936 1.66654C30.5151 1.52769 29.1051 1.49992 26.8323 2.49961C24.6226 0.416922 20.2032 2.08307 17.6778 5.83191C11.0487 4.5823 11.6801 9.99728 10.4174 9.99728Z" fill="#4BFFC9"/>
<path d="M56 24.659C56 20.9935 54.3585 17.6612 51.8331 16.1617C51.2018 10.9966 47.982 6.99783 44.0676 6.58129C42.9944 3.66553 40.7215 1.74946 38.1962 1.74946C37.8805 1.74946 37.5648 1.83276 37.2491 1.83276H37.186C36.8703 1.91607 36.4915 1.99938 36.1759 2.16599C34.9132 0.833075 33.3348 0 31.6933 0C30.3675 0 29.0417 0.499845 27.9684 1.49953C26.832 0.833075 25.5693 0.499845 24.2435 0.499845C21.655 0.499845 19.1928 1.91607 17.4882 4.4986C16.92 4.33199 16.4149 4.24868 15.8467 4.24868C13.5738 4.24868 11.4904 5.74822 10.2909 8.33075C10.2277 8.33075 10.1015 8.33075 10.0383 8.33075C9.91206 8.33075 9.7858 8.33075 9.72266 8.33075C9.59639 8.33075 9.47012 8.41406 9.34386 8.41406C9.21759 8.41406 9.15445 8.49736 9.02818 8.49736C8.90192 8.49736 8.77565 8.58067 8.64938 8.66398C8.52311 8.66398 8.45998 8.74729 8.33371 8.74729C8.20744 8.83059 8.08117 8.83059 8.01804 8.9139C7.89177 8.99721 7.7655 8.99721 7.70237 9.08052C7.63923 9.16382 7.51296 9.16382 7.44983 9.24713C7.32356 9.33044 7.19729 9.41375 7.07103 9.49705C4.86133 11.0799 3.34611 14.1623 3.15671 17.6612V17.7445C1.13641 20.2437 0 23.8259 0 27.4915C0 34.9058 4.60879 40.9873 10.2277 40.9873C10.7959 40.9873 11.4273 40.904 11.9955 40.8207C12.7531 41.1539 13.5738 41.3205 14.3946 41.4038C16.0361 46.7355 19.3191 49.568 23.8016 49.568C28.0947 49.568 33.2717 55.3162 33.2717 62.0641V63.3137H40.469L39.6483 55.5661C44.6358 56.2326 49.3709 51.9839 50.6336 45.4026C50.823 44.2363 50.9493 43.07 50.9493 41.987C53.9166 40.5707 56 36.8219 56 32.5732C56 31.157 55.8106 29.8241 55.3687 28.5745C55.7475 27.3249 56 25.9919 56 24.659ZM53.2852 29.1576C53.7272 30.2406 53.9166 31.3236 53.9166 32.5732C53.9166 35.4057 52.6539 37.9882 50.6967 39.1545C49.876 34.2394 46.9718 30.2406 43.2469 28.991C42.6787 28.8244 42.1105 29.2409 41.9842 29.9907C41.8579 30.7405 42.1736 31.4902 42.7418 31.6568C46.0879 32.7398 48.5502 36.4887 48.8658 40.9873C48.9921 42.2369 48.8658 43.4865 48.6764 44.7361C47.54 50.5676 43.1206 54.0666 38.7012 52.567L37.2491 52.0672L38.133 60.5645H35.2289C34.5975 52.7336 28.6629 46.6522 23.7384 46.6522C20.3292 46.6522 17.9301 44.8194 16.5411 41.1539C16.5411 41.0706 16.5411 40.9873 16.478 40.904C15.4047 37.9882 16.3517 34.406 18.6246 32.9898C19.1297 32.6565 19.3822 31.8235 19.1297 31.157C18.8771 30.4905 18.2458 30.1573 17.7407 30.4905C15.3416 31.9901 14.0158 35.1558 14.0158 38.4048C13.4476 38.3214 12.8794 38.1548 12.3743 37.9049L12.1218 37.7383L11.8692 37.8216C11.3641 37.9882 10.7959 38.0715 10.2277 38.0715C5.74521 38.0715 2.02029 33.2397 2.02029 27.2415C2.02029 25.0756 2.52537 22.9096 3.47238 21.1601C4.22999 24.3258 6.25028 26.825 8.71251 27.6581C8.52311 28.0746 8.39684 28.4912 8.33371 28.9077C8.08117 30.4072 8.20744 31.9068 8.83878 33.2397C9.02818 33.6562 9.34386 33.9061 9.72266 33.9061C9.91206 33.9061 10.1015 33.8228 10.2277 33.7395C10.7328 33.323 10.8591 32.4899 10.6065 31.9068C10.2909 31.2403 10.2277 30.4072 10.354 29.6575C10.4803 28.9077 10.8591 28.2412 11.3641 27.8247C11.8692 27.4082 11.9955 26.5751 11.743 25.9919C11.4904 25.4921 11.0485 25.2422 10.6065 25.4088C7.63923 25.3255 5.177 22.0765 5.177 18.161C5.177 14.1623 7.63923 10.9133 10.6697 10.9133C10.7328 10.9133 10.7328 10.9133 10.7959 10.9133L11.6167 10.9966L11.9324 10.1635C12.69 8.08083 14.2683 6.83121 15.9729 6.83121C16.5411 6.83121 17.0462 6.99783 17.6144 7.24775L18.3089 7.58098L18.7508 6.74791C20.0767 4.4153 22.1601 3.08238 24.3698 3.08238C25.5062 3.08238 26.7057 3.49891 27.7159 4.16537L28.3472 4.58191L28.8523 3.99876C29.6731 3.08238 30.6832 2.58253 31.7565 2.58253C32.6404 2.58253 33.5242 2.91576 34.2187 3.58222C32.7035 5.16506 31.6933 7.58098 31.6933 10.3301C31.6933 11.0799 32.1353 11.663 32.7035 11.663C33.2717 11.663 33.7136 11.0799 33.7136 10.3301C33.7136 8.08083 34.6607 6.16475 35.9865 5.16506L36.3021 4.99845C36.9335 4.66522 37.5648 4.4153 38.1962 4.4153C40.0902 4.4153 41.7317 5.99814 42.4262 8.33075L42.6787 9.24713H43.3732C46.7824 9.24713 49.6234 12.8294 49.876 17.2446L49.9391 18.161L50.5705 18.411C52.5908 19.3273 53.9797 21.8266 53.9797 24.659C53.9797 25.742 53.7903 26.9083 53.3484 27.8247L53.0958 28.4912L53.2852 29.1576ZM31.5671 36.0721C31.5671 33.5729 30.6201 31.2403 29.0417 29.8241C26.3269 28.1579 24.4329 24.7423 24.0541 20.8269C23.991 20.2437 24.3067 19.6606 24.7486 19.5773C25.1905 19.494 25.6325 19.9105 25.6956 20.4936C26.0744 24.0759 27.9053 27.0749 30.4938 28.2412C32.3247 29.0743 34.2818 28.9077 36.0496 27.8247C37.8174 26.7417 39.08 24.7423 39.7114 22.3264C39.8377 21.7433 40.3427 21.4933 40.7847 21.6599C41.2266 21.8266 41.416 22.493 41.2897 23.0762C40.5321 26.0752 38.8906 28.4079 36.7441 29.7408C35.5445 30.4905 34.2187 30.9071 32.8929 30.9071C32.6404 30.9071 32.3878 30.9071 32.0722 30.8238C32.7666 32.3233 33.2086 34.0728 33.2086 35.9888C33.2086 36.572 32.8298 37.0718 32.3878 37.0718C31.9459 37.0718 31.5671 36.6553 31.5671 36.0721ZM47.1612 23.576C47.1612 24.1592 46.7824 24.659 46.3405 24.659C45.8985 24.659 45.5197 24.1592 45.5197 23.576C45.5197 18.6609 42.4893 14.6621 38.7644 14.6621C38.3224 14.6621 37.9436 14.1623 37.9436 13.5791C37.9436 12.996 38.3224 12.4961 38.7644 12.4961C43.3732 12.4961 47.1612 17.4946 47.1612 23.576ZM25.4431 12.4128C25.4431 11.8297 25.8219 11.3298 26.2638 11.3298C29.8625 11.3298 32.8298 15.162 32.8298 19.9938C32.8298 20.577 32.451 21.0768 32.009 21.0768C31.5671 21.0768 31.1883 20.577 31.1883 19.9938C31.1883 16.4116 28.9786 13.4958 26.2638 13.4958C25.8219 13.4958 25.4431 12.996 25.4431 12.4128ZM23.4859 37.1551C23.3596 37.4884 23.044 37.655 22.7914 37.655C22.6652 37.655 22.4758 37.5717 22.3495 37.4884C21.9707 37.1551 21.8444 36.4887 22.097 35.9888C23.4859 33.0731 22.7914 29.2409 20.5817 27.4082C20.2029 27.0749 20.0767 26.4085 20.3292 25.9086C20.5817 25.4088 21.0868 25.2422 21.4656 25.5754C24.4329 28.0746 25.3168 33.2397 23.4859 37.1551ZM22.7283 17.9944C21.4656 17.9944 20.3292 17.2446 19.4453 16.1617C17.9932 18.9108 15.5941 20.4103 13.195 20.4103C11.9324 20.4103 10.6065 19.9938 9.40699 19.0774C9.02818 18.7442 8.90192 18.0777 9.09132 17.5779C9.34386 17.078 9.84893 16.9114 10.2277 17.1613C13.0688 19.3273 16.7306 18.0777 18.4352 14.2456C18.1195 13.3292 17.9301 12.3295 17.9301 11.3298C17.9301 10.7467 18.3089 10.2468 18.7508 10.2468C19.1928 10.2468 19.5716 10.7467 19.5716 11.3298C19.5085 13.6624 20.9605 15.6618 22.7283 15.7451C23.1702 15.7451 23.549 16.245 23.549 16.8281C23.549 17.5779 23.1702 17.9944 22.7283 17.9944ZM41.9842 39.1545C42.363 39.4877 42.4262 40.1542 42.1736 40.6541C40.5953 43.6531 38.0699 45.3193 35.4814 45.3193C33.903 45.3193 32.3247 44.7361 30.9357 43.4865C30.5569 43.1533 30.4938 42.4868 30.7463 41.987C30.9989 41.4871 31.5039 41.4038 31.8827 41.737C33.3348 42.9867 35.0395 43.4865 36.7441 43.07C38.4487 42.6534 39.9008 41.4038 40.9109 39.4878C41.1003 38.9879 41.6054 38.8213 41.9842 39.1545Z" fill="black"/>
</svg>
