<svg width="87" height="91" viewBox="0 0 87 91" fill="none" xmlns="http://www.w3.org/2000/svg">
<circle cx="43.5" cy="48.5" r="40" fill="#495AFF" stroke="black" stroke-width="5"/>
<circle cx="43.5" cy="43.5" r="41.5" fill="#495AFF" stroke="black" stroke-width="3"/>
<g clip-path="url(#clip0_41_13172)">
<path d="M58.4359 32.1108C57.7653 32.1215 57.3706 31.9425 57.1307 31.4751C56.9024 31.0308 57.0517 30.6321 57.2943 30.2646C57.4216 30.0707 57.5875 29.9054 57.7816 29.7791C58.8121 29.1285 59.839 28.4682 60.9028 27.8762C61.2551 27.7034 61.6492 27.636 62.0386 27.682C62.219 27.7027 62.3918 27.766 62.5433 27.8667C62.6947 27.9674 62.8202 28.1027 62.9098 28.2615C62.9992 28.4203 63.05 28.5981 63.0582 28.7804C63.0663 28.9628 63.0313 29.1444 62.9562 29.3106C62.7665 29.7304 62.466 30.0898 62.0871 30.3496C61.1346 30.9306 60.1264 31.4217 59.1269 31.9213C58.9052 32.0129 58.6731 32.0766 58.4359 32.1108Z" fill="white"/>
<path d="M27.1749 33.513C26.9625 33.3926 26.4812 33.2233 26.1425 32.9014C25.5971 32.3721 25.1021 31.7927 24.6638 31.1709C24.4302 30.8544 24.2963 30.4749 24.2793 30.0812C24.2872 29.3627 25.0399 28.8445 25.8014 29.1006C26.4333 29.2968 27.0204 29.6166 27.5289 30.0418C28.0374 30.4669 28.4573 30.989 28.7644 31.5779C29.278 32.586 28.5703 33.5456 27.1749 33.513Z" fill="white"/>
<path d="M54.4922 19.1026C55.5049 19.0964 56.1145 19.8581 55.9142 20.6585C55.8588 20.9179 55.74 21.1593 55.5683 21.3608C54.8823 22.073 54.1903 22.7849 53.4438 23.4309C53.0815 23.7443 52.624 23.9785 52.0737 23.7921C51.4331 23.575 51.1239 23.0453 51.3319 22.4039C51.3854 22.2118 51.4756 22.032 51.5971 21.8742C52.2414 21.1233 52.8772 20.3614 53.5721 19.6596C53.8577 19.3711 54.2843 19.2239 54.4922 19.1026Z" fill="white"/>
<path d="M36.4988 22.8589C36.4408 23.4472 36.1961 23.8828 35.6683 24.1389C35.1746 24.3781 34.7474 24.2138 34.4044 23.8725C33.6594 23.1625 33.0994 22.2793 32.7738 21.3006C32.5565 20.6088 32.7609 20.0306 33.2593 19.7197C33.7895 19.3896 34.3658 19.436 34.8693 19.9779C35.6374 20.8059 36.2817 21.7245 36.4988 22.8589Z" fill="white"/>
<path d="M65.7836 38.1763C65.7685 37.6765 65.6804 37.1817 65.5217 36.7078C65.2915 36.0793 64.8766 35.6523 64.3567 35.5088C63.8308 35.3629 63.2512 35.5206 62.7253 35.9495C62.3284 36.2728 61.9395 36.626 61.5644 36.9672C61.4099 37.1068 61.2554 37.2486 61.1009 37.3862L59.0409 39.2277C57.3599 40.7302 55.6777 42.2328 53.9942 43.7351C53.8735 43.8367 53.7462 43.93 53.6131 44.0143C53.5594 44.0502 53.504 44.0862 53.4484 44.1262C53.4107 44.152 53.3678 44.1689 53.3228 44.1755C53.2778 44.1823 53.2319 44.1788 53.1884 44.165C53.1446 44.1514 53.1048 44.1277 53.0716 44.0959C53.0385 44.064 53.0132 44.0248 52.9978 43.9815C52.6227 42.9499 52.2577 41.9233 51.8925 40.9007C51.0813 38.6289 50.2414 36.2779 49.3624 34.0033C48.1378 30.8383 46.8241 27.768 45.5898 24.9208C45.2676 24.2327 44.83 23.6057 44.2958 23.0672C43.8155 22.5624 43.2896 22.5245 42.5929 22.9495C42.0255 23.2927 41.7833 23.8872 41.5272 24.5158L41.5035 24.574C41.2476 25.1965 40.9944 25.8204 40.7435 26.4456C39.9754 28.3412 39.1816 30.3045 38.3382 32.208C37.0635 35.087 35.6847 37.9783 34.3809 40.6933C33.9384 41.6151 33.4562 42.5009 32.9461 43.4388C32.7144 43.866 32.4778 44.3007 32.2416 44.7477C32.2225 44.7842 32.1962 44.8163 32.1643 44.8419C32.1323 44.8675 32.0955 44.8864 32.056 44.897C32.0165 44.9077 31.9752 44.91 31.9348 44.904C31.8943 44.8978 31.8555 44.8834 31.8209 44.8615L30.9833 44.3326C30.4514 43.9994 29.9672 43.6963 29.485 43.3889C28.8063 42.958 28.1276 42.5264 27.4488 42.0939C26.1192 41.246 24.7883 40.4013 23.4559 39.56C23.1572 39.3401 22.8031 39.2087 22.4339 39.1809C22.1619 39.1897 21.9024 39.2974 21.7036 39.4842C21.1181 39.9669 20.9533 40.5636 21.2015 41.3095C21.3603 41.7902 21.5746 42.2693 21.7809 42.7341L21.7909 42.7535C21.9576 43.1308 22.1401 43.5118 22.3147 43.8809C22.6442 44.5772 22.9876 45.2984 23.2634 46.0363C23.44 46.5031 23.6173 46.9706 23.7953 47.439C24.9324 50.4337 26.1073 53.5304 26.8754 56.7188C27.1353 57.8003 27.7564 58.385 28.7744 58.5065C29.0543 58.5405 29.3345 58.5765 29.6121 58.6124C30.754 58.7852 31.9065 58.878 33.0612 58.8897C35.6847 58.8559 38.3519 58.758 40.932 58.6642C42.067 58.6223 43.2015 58.5825 44.3354 58.5446C46.197 58.4846 48.0586 58.4273 49.92 58.373L52.0574 58.3071C52.2301 58.3031 52.4027 58.297 52.5773 58.2932C52.7658 58.2891 52.9565 58.2831 53.1469 58.2772C53.8078 58.2578 54.4687 58.2312 55.1294 58.2073C56.7517 58.1475 58.4258 58.0856 60.0769 58.0757C60.839 58.0716 61.3769 57.8038 61.7718 57.2357C62.0439 56.8184 62.2508 56.3615 62.385 55.8809L62.5994 55.1745C63.4745 52.2933 64.3776 49.3124 64.9093 46.2957C64.961 46.0023 65.0145 45.711 65.0661 45.4176C65.4898 43.0607 65.9304 40.6184 65.7836 38.1763ZM59.169 54.6153C59.15 54.6679 59.1166 54.7139 59.0728 54.7483C59.0289 54.7827 58.9762 54.8038 58.921 54.8095C58.6828 54.8355 58.4368 54.8654 58.1886 54.8953C57.6212 54.9652 57.0318 55.037 56.4363 55.0629C55.4598 55.1048 54.4677 55.1347 53.509 55.16C52.231 55.1988 50.9092 55.2357 49.6133 55.3075C48.1032 55.3933 46.567 55.519 45.0826 55.6407C44.2293 55.7106 43.3759 55.7805 42.5226 55.8423C41.2763 55.9341 40.2363 56.0079 39.1528 56.0419C36.4835 56.1277 33.7706 56.1972 31.1471 56.2654L29.8473 56.2992H29.8174C29.6966 56.2966 29.5764 56.2825 29.4583 56.2572C29.4185 56.2493 29.3789 56.2413 29.3411 56.2378C29.2848 56.23 29.2318 56.2062 29.1886 56.1691C29.1453 56.1318 29.1135 56.0831 29.097 56.0283L25.6499 44.7551C25.6316 44.697 25.6315 44.6345 25.6497 44.5763C25.6679 44.518 25.7034 44.4669 25.7515 44.4297C25.7996 44.3924 25.8579 44.3708 25.9185 44.3681C25.9791 44.3652 26.0392 44.3811 26.0905 44.4137L26.537 44.6912C26.8327 44.8747 27.1046 45.0423 27.3725 45.2139C27.7535 45.4574 28.1345 45.6996 28.5156 45.9401C29.4603 46.5407 30.4387 47.1594 31.3813 47.8017C31.9845 48.2128 32.5125 48.3704 32.9471 48.2706C33.372 48.1735 33.7468 47.8357 34.0902 47.2392L34.3992 46.7064C34.9827 45.7007 35.586 44.6592 36.088 43.5996C37.7489 40.08 39.4141 36.4886 41.0237 33.0148C41.6587 31.644 42.2951 30.2733 42.9328 28.9026C42.9863 28.786 43.042 28.673 43.1213 28.5155L43.2741 28.2062C43.2986 28.1543 43.338 28.1109 43.3871 28.0814C43.4363 28.0519 43.4929 28.0378 43.5501 28.0406C43.6071 28.042 43.6625 28.0599 43.7096 28.092C43.7568 28.1242 43.7936 28.1694 43.8159 28.2221C44.0501 28.7769 44.2863 29.3136 44.5185 29.8404C45.0225 30.986 45.4988 32.067 45.9057 33.1903C46.8365 35.7662 47.7473 38.3942 48.6305 40.9378C49.1365 42.3945 49.6446 43.8518 50.1547 45.3095C50.4067 46.0528 50.7009 46.7809 51.0357 47.4902C51.1458 47.7491 51.3148 47.9782 51.5294 48.1592C51.7438 48.3401 51.9975 48.4677 52.2703 48.5318C52.8041 48.6376 53.3676 48.452 53.8597 48.011C54.6079 47.3407 55.3523 46.6642 56.0964 45.9899C56.7494 45.3972 57.4022 44.806 58.0552 44.2161C58.8866 43.47 59.7207 42.7256 60.5576 41.9831L61.6778 40.9873C61.7191 40.9506 61.7695 40.926 61.8238 40.9163C61.878 40.9064 61.9341 40.9118 61.9854 40.9316L62.1917 41.0133C62.2548 41.0382 62.308 41.0838 62.3418 41.1431C62.3757 41.2023 62.3885 41.2712 62.3783 41.3386C61.7687 45.2495 60.9114 49.8864 59.169 54.6153Z" fill="white"/>
</g>
<defs>
<clipPath id="clip0_41_13172">
<rect width="45" height="40" fill="white" transform="translate(21 19)"/>
</clipPath>
</defs>
</svg>
