<svg width="47" height="70" viewBox="0 0 47 70" fill="none" xmlns="http://www.w3.org/2000/svg">
<path d="M26.1736 7.64642L18.9675 8.44377L14.4801 12.0022L11.1752 17.5732L10.8856 27.9647L13.1059 37.1855L12.9038 45.7047L16.0942 46.7806L22.8453 24.2174L28.5421 17.897L29.2564 27.8202L22.8894 50.5706L26.2281 52.6763L26.6997 50.9911L30.1225 44.9988L35.2297 40.7849L38.4773 38.5373L41.0141 32.5921L41.6609 27.1622L40.357 19.3454L36.1896 13.9633L33.0867 11.0151L26.1736 7.64642Z" fill="#EDFFA5"/>
<path d="M28.394 16.867L29.4924 26.9774L22.4614 24.03L28.394 16.867Z" fill="#C48F69"/>
<path d="M28.8728 27.6327L22.3438 24.4512L15.9767 47.2016L22.8898 50.5702L28.8728 27.6327Z" fill="white"/>
<path d="M26.1186 53.398L12.1191 46.5762C11.6945 46.3693 11.4565 45.825 11.5868 45.3593L11.8512 44.4146C13.0282 40.209 12.7951 35.6996 11.1957 31.7167C9.38922 27.2186 9.06504 22.3432 10.2835 17.9894C11.6473 13.1165 14.8524 9.3792 19.0766 7.73566C23.3583 6.06962 28.1228 6.66519 32.4825 9.4049C39.4607 13.7899 43.4827 22.9994 42.0444 31.3033C41.156 36.436 38.4753 40.4896 34.4944 42.7164C31.0439 44.6472 28.5506 47.8271 27.4746 51.6715L27.1225 52.9297C26.9922 53.3954 26.5432 53.6049 26.1186 53.398ZM13.3589 45.2653L25.8221 51.3385L25.9384 50.9229C27.1295 46.6671 29.8703 43.1571 33.656 41.0399C37.2462 39.0304 39.6652 35.3729 40.4665 30.7402C41.7627 23.2544 38.1374 14.9516 31.8471 10.9991C27.907 8.52085 23.6127 7.98707 19.7508 9.49019C15.9407 10.9727 13.0497 14.3431 11.8197 18.738C10.7208 22.6647 11.0129 27.0607 12.6419 31.1179C14.4195 35.5421 14.684 40.5305 13.3874 45.1632L13.3589 45.2653Z" fill="black"/>
<path d="M15.6606 62.368C11.9115 60.5411 9.79736 55.708 10.9483 51.5953L12.5611 45.8328C12.6914 45.3671 13.1404 45.1576 13.565 45.3645L25.6284 51.2429C26.053 51.4498 26.2911 51.9941 26.1607 52.4598L24.548 58.2223C23.397 62.3349 19.4097 64.1949 15.6606 62.368ZM13.8615 47.424L12.4846 52.3439C11.5936 55.5276 13.23 59.2686 16.1322 60.6828C19.0345 62.097 22.1208 60.6573 23.0118 57.4737L24.3887 52.5538L13.8615 47.424Z" fill="black"/>
<path d="M22.5208 51.5372L15.6962 48.2116C15.2717 48.0047 15.0336 47.4605 15.1639 46.9947L21.6314 23.8856C21.7617 23.4198 22.2107 23.2104 22.6353 23.4173L29.4599 26.7428C29.8845 26.9497 30.1225 27.494 29.9922 27.9597L23.5248 51.0689C23.3944 51.5346 22.9454 51.7441 22.5208 51.5372ZM16.936 46.9007L22.2243 49.4777L28.2201 28.0537L22.9318 25.4768L16.936 46.9007Z" fill="black"/>
<path d="M28.9867 28.4281L22.1621 25.1026C21.9078 24.9787 21.7087 24.7246 21.6301 24.4235C21.5513 24.1233 21.6043 23.8153 21.7706 23.6018L27.8252 15.8231C28.0315 15.558 28.3733 15.4852 28.6883 15.6387C29.0034 15.7922 29.2272 16.1407 29.2534 16.5191L30.0234 27.6233C30.0446 27.9282 29.9332 28.2077 29.7254 28.3683C29.5174 28.5297 29.2409 28.5521 28.9867 28.4281ZM23.7649 23.9686L28.3271 26.1917L27.8128 18.7672L23.7649 23.9686Z" fill="black"/>
<path d="M19.1084 49.8747C18.6838 49.6678 18.4457 49.1236 18.5761 48.6578L25.0435 25.5487C25.1738 25.0829 25.6229 24.8735 26.0474 25.0804C26.472 25.2872 26.7101 25.8315 26.5797 26.2973L20.1123 49.4064C19.982 49.8721 19.5329 50.0816 19.1084 49.8747Z" fill="black"/>
<path d="M27.4536 58.9003L23.9625 57.1992C23.5379 56.9923 23.2999 56.448 23.4302 55.9823C23.5605 55.5165 24.0096 55.3071 24.4341 55.5139L27.9252 57.2151C28.3498 57.422 28.5878 57.9663 28.4575 58.432C28.3272 58.8977 27.8781 59.1072 27.4536 58.9003Z" fill="black"/>
<path d="M11.8969 51.3202L8.40587 49.6191C7.9813 49.4122 7.74322 48.8679 7.87356 48.4022C8.0039 47.9364 8.45293 47.727 8.8775 47.9339L12.3686 49.635C12.7931 49.8419 13.0312 50.3862 12.9009 50.8519C12.7705 51.3177 12.3215 51.5271 11.8969 51.3202Z" fill="black"/>
</svg>
