<svg width="30" height="56" viewBox="0 0 30 56" fill="none" xmlns="http://www.w3.org/2000/svg">
<rect x="7.9375" y="51.2607" width="14.1265" height="3.49508" fill="#676767"/>
<rect x="7.9375" y="1.16504" width="13.2436" height="37.2808" rx="6.62181" fill="#DC925C"/>
<path d="M27.3604 19.8054C27.2721 19.4559 27.7136 17.4754 26.4775 17.4754C25.3297 17.4754 25.6829 19.4559 25.5946 19.8054H22.9459V10.4852C22.9459 4.6601 19.4142 0 14.9997 0C10.5851 0 7.0535 4.6601 7.0535 10.4852V19.8054H4.40478V18.6404C4.40478 17.1259 2.63896 17.1259 2.63896 18.6404V19.8054C1.84434 19.9219 -0.00976562 19.2229 -0.00976562 20.9705C-0.00976562 21.6695 0.343398 22.1355 0.873143 22.1355H2.63896V29.1256C2.63896 37.7468 7.67154 44.737 14.1168 45.3195V48.9311H9.70223C8.20128 48.9311 7.0535 50.4456 7.0535 52.4261C7.14179 53.4747 6.61205 55.9212 7.93641 55.9212C20.8269 55.4552 22.9459 56.9697 22.9459 54.7562V52.4261C22.9459 50.4456 21.7981 48.9311 20.2971 48.9311H15.8826V45.3195C22.3278 44.737 27.3604 37.6303 27.3604 29.1256V22.1355C28.155 22.019 30.0091 22.718 30.0091 20.9705C30.0091 19.2229 28.155 19.9219 27.3604 19.8054ZM21.18 53.5912H8.81932C8.90761 53.2417 8.46616 51.2611 9.70223 51.2611H20.2971C21.4449 51.2611 21.0917 53.2417 21.18 53.5912ZM8.81932 10.4852C8.81932 5.94163 11.5563 2.33005 14.9997 2.33005C18.443 2.33005 21.18 5.94163 21.18 10.4852V12.8153C18.9728 13.0483 16.7655 12.1163 16.7655 13.9803C16.7655 15.8443 18.9728 14.9123 21.18 15.1453V19.8054C18.9728 20.0384 16.7655 19.1064 16.7655 20.9705C16.7655 22.8345 18.9728 21.9025 21.18 22.1355V26.7956C18.9728 27.0286 16.7655 26.0966 16.7655 27.9606C16.7655 29.8246 18.9728 28.8926 21.18 29.1256C21.18 33.6692 18.443 37.2808 14.9997 37.2808C11.5563 37.2808 8.81932 33.6692 8.81932 29.1256V10.4852ZM25.5946 29.1256C25.5946 36.8148 20.8269 43.1059 14.9997 43.1059C9.17248 43.1059 4.40478 36.8148 4.40478 29.1256V22.1355H7.0535V29.1256C7.0535 34.9508 10.5851 39.6109 14.9997 39.6109C19.4142 39.6109 22.9459 34.9508 22.9459 29.1256V22.1355H25.5946V29.1256Z" fill="black"/>
</svg>
