<svg width="87" height="91" viewBox="0 0 87 91" fill="none" xmlns="http://www.w3.org/2000/svg">
<circle cx="43.5" cy="48.5" r="40" fill="#495AFF" stroke="black" stroke-width="5"/>
<circle cx="43.5" cy="43.5" r="41.5" fill="#FF86C8" stroke="black" stroke-width="3"/>
<path d="M54.8262 33.7202C54.9017 33.6528 54.9619 33.57 55.0028 33.4775C55.0437 33.3849 55.0643 33.2846 55.0633 33.1834C55.0623 33.0822 55.0397 32.9824 54.997 32.8907C54.9543 32.7989 54.8924 32.7174 54.8156 32.6515C54.7347 32.5821 54.6545 32.513 54.5748 32.4444C53.9669 31.9218 53.3386 31.3807 52.6812 30.9191C47.6594 27.3847 42.4417 27.3649 37.1736 29.2393C32.4038 30.9351 29.3408 34.328 28.0682 39.3217C26.6487 44.9009 27.8917 49.8229 31.7655 53.9526C31.8663 54.0593 31.9691 54.166 32.0718 54.268C34.1528 56.349 36.7447 57.6337 38.7983 58.5277C39.6798 58.9127 44.2025 59.3802 45.4263 59.1978C52.6986 58.1119 57.4844 54.0101 59.1512 47.1479C59.4695 45.8037 59.628 44.4267 59.6234 43.0454C59.6162 41.5947 59.3722 40.155 58.9011 38.7829C58.8668 38.6803 58.8102 38.5865 58.7355 38.5083C58.6607 38.43 58.5695 38.3693 58.4686 38.3304C58.3676 38.2916 58.2592 38.2755 58.1513 38.2834C58.0434 38.2912 57.9385 38.3229 57.8443 38.376L57.8245 38.3873C57.6747 38.4731 57.5598 38.6088 57.5 38.7707C57.4402 38.9326 57.4392 39.1104 57.4972 39.273C57.9224 40.4524 58.1393 41.6967 58.138 42.9504C58.1232 44.4544 57.9196 45.9506 57.5319 47.4039C56.3829 51.5802 53.6359 54.6239 49.1338 56.7058C44.557 58.8971 37.9935 56.6818 36.2471 55.5288C34.3169 54.2092 32.628 52.5675 31.2541 50.6755C29.0996 47.625 28.6162 43.2403 29.774 39.2317C30.3158 37.3809 31.2627 35.6739 32.546 34.2344C33.8293 32.7949 35.4169 31.6591 37.1936 30.9092C41.8158 28.9883 46.4536 28.6495 50.9771 31.5263C51.5836 31.9125 53.13 33.1267 53.9117 33.7468C54.0428 33.8509 54.2065 33.9052 54.3738 33.9001C54.5411 33.8951 54.7013 33.8311 54.8259 33.7194L54.8262 33.7202Z" fill="white" stroke="white"/>
<path d="M41.7646 48.0064C42.0744 47.712 42.2445 47.5631 42.4003 47.4003C47.3947 42.1824 52.8644 37.4848 58.3664 32.8235C58.5743 32.6474 58.7871 32.4228 59.0332 32.3597C59.33 32.2839 59.8139 32.3711 59.9465 32.5322C60.0336 32.6513 60.0887 32.7908 60.1064 32.9373C60.1242 33.0837 60.1039 33.2323 60.0477 33.3687C59.9184 33.7078 59.6034 33.9983 59.3176 34.2521C57.6122 35.7675 55.8591 37.2307 54.1838 38.7774C50.6817 42.0117 47.2019 45.27 43.7445 48.5525C42.2295 49.9876 41.6464 50.0458 40.2523 48.5123C39.3347 47.5023 36.5652 44.0985 35.7171 43.026C35.5972 42.8593 35.4905 42.6836 35.3978 42.5004C35.2065 42.1611 35.0815 41.7873 35.4617 41.5243C35.8853 41.2314 36.1859 41.5371 36.437 41.8553C36.6911 42.1776 36.9078 42.5315 37.1798 42.8369C38.0244 43.7846 40.852 47.0069 41.7646 48.0064Z" fill="white" stroke="white"/>
</svg>
