<svg width="87" height="91" viewBox="0 0 87 91" fill="none" xmlns="http://www.w3.org/2000/svg">
<circle cx="43.5" cy="48.5" r="40" fill="#FF525C" stroke="black" stroke-width="5"/>
<circle cx="43.5" cy="43.5" r="41.5" fill="#FF525C" stroke="black" stroke-width="3"/>
<g clip-path="url(#clip0_41_13173)">
<path d="M62.9617 31.7049C62.8549 31.3658 62.7485 31.0266 62.6422 30.6874C62.3927 29.851 61.8931 29.1117 61.2119 28.5712C60.5514 28.0499 59.8512 27.9557 59.1873 28.2989L59.0085 28.3909C58.4739 28.6652 57.9209 28.9489 57.4814 29.3585C56.7076 30.0802 55.9616 30.8549 55.2401 31.604C54.924 31.9322 54.6079 32.2605 54.288 32.5861C54.2539 32.6201 54.2179 32.6521 54.1803 32.6821C54.0916 32.5012 54.0055 32.3211 53.9199 32.1427C53.6617 31.6041 53.4178 31.0955 53.1296 30.5977C52.8374 30.0755 52.4229 29.633 51.9224 29.3092C51.422 28.9854 50.8509 28.7901 50.2594 28.7406C49.4844 28.6583 48.6649 28.5908 47.9139 28.7423C44.566 29.4184 41.5098 30.0853 38.5707 30.7815C34.8303 31.6686 31.0346 32.6392 27.7707 33.4805C26.2689 33.8667 24.5015 34.3416 22.778 34.9249C21.2314 35.4479 20.4366 36.5914 20.4792 38.2319C20.4811 38.2999 20.4764 38.3681 20.472 38.4365C20.4677 38.5049 20.4633 38.5744 20.4637 38.6433C20.4786 40.8541 20.8946 43.1913 21.7374 45.7875C22.4335 47.932 23.2093 50.0887 23.9603 52.1746C24.1348 52.6598 24.3094 53.1453 24.484 53.631C24.8308 54.5991 25.1747 55.4565 25.8755 56.1443C27.1399 57.3849 28.5854 57.8154 30.1759 57.424C30.2054 57.4168 30.235 57.4095 30.2645 57.4014C31.2554 57.1395 32.2595 56.8617 33.2306 56.593C34.2902 56.3 35.386 55.997 36.4668 55.7131C38.88 55.0807 41.2943 54.4528 43.7097 53.8292C46.1101 53.2074 48.5102 52.5832 50.9099 51.9572C51.9314 51.6891 53.0177 51.3954 54.0812 51.0046C55.158 50.6088 56.2589 50.129 56.8585 49.0052C57.2875 48.2005 57.8155 47.2104 57.7497 45.9737L57.9936 46.0281C58.2791 46.0915 58.5284 46.147 58.7794 46.1973L59.0839 46.2585C60.1895 46.4805 61.3326 46.7104 62.4978 46.6004C63.899 46.4683 64.8366 46.0562 65.3648 45.3416C65.8578 44.6745 65.98 43.7497 65.7385 42.5143C65.3763 40.6615 64.9707 38.6801 64.4615 36.744C64.014 35.0491 63.479 33.3492 62.9617 31.7049ZM63.623 43.0008C63.6525 43.206 63.6604 43.4135 63.6469 43.6201C63.6452 43.6873 63.6431 43.7526 63.6425 43.8185C62.7207 44.215 61.8456 44.0919 61.0357 43.8971C60.1023 43.6725 59.1761 43.4009 58.2805 43.1389C57.9347 43.0376 57.5929 42.9375 57.2561 42.8415L54.9294 34.6299C56.5333 32.9563 58.0142 31.4705 59.7845 30.2621C60.2275 30.4769 60.3849 30.8623 60.5073 31.2408C61.5377 34.4253 62.8233 38.6402 63.623 43.0008ZM27.132 53.4772C26.8635 52.8038 26.586 52.1077 26.3451 51.4138C26.1119 50.7418 25.8915 50.0514 25.6782 49.3838C25.5752 49.0614 25.4722 48.7389 25.3674 48.4172C25.2861 48.1676 25.2071 47.9176 25.128 47.6673C24.9426 47.0815 24.7509 46.4755 24.5342 45.8881C23.7736 43.8789 23.276 41.7793 23.0538 39.6426C23.0326 39.4259 23.025 39.2017 23.0178 38.9848C23.0105 38.7678 23.0029 38.5414 22.9815 38.3183C22.9258 37.7365 23.1775 37.3583 23.7982 37.0923C24.4461 36.8141 25.0836 36.5457 25.6929 36.2941C27.0638 35.7476 28.4737 35.3054 29.9108 34.971C30.1243 34.9185 30.3362 34.8674 30.5465 34.8178C32.629 34.324 34.739 33.7933 36.7795 33.2798C38.7208 32.7913 40.7281 32.2864 42.7077 31.8144C44.4885 31.3897 46.3495 31.0802 47.9532 30.8242C48.5376 30.7569 49.1281 30.7573 49.7132 30.8253L49.8818 30.8383C50.1994 30.8474 50.5083 30.9468 50.7732 31.1249C51.0382 31.3031 51.2483 31.5527 51.3795 31.8452C51.7341 32.5875 52.0501 33.3478 52.3258 34.1231C52.8624 35.6914 53.3787 37.2687 53.8343 38.6604C54.0009 39.169 54.1595 39.6536 54.3082 40.1041L54.608 41.6491C54.8595 42.9437 55.0741 44.049 55.2824 45.1556C55.3435 45.4415 55.3723 45.7331 55.3684 46.0252C55.3169 47.1816 54.8774 47.9177 54.0248 48.2755C53.2711 48.5884 52.4973 48.8504 51.7089 49.0598C48.8501 49.8288 45.9413 50.6034 43.1279 51.3525C40.6002 52.0254 38.0731 52.7001 35.5465 53.3766C34.5652 53.64 33.5734 53.9261 32.6142 54.2029C31.9798 54.3858 31.3457 54.5689 30.71 54.7468C30.4803 54.8109 30.2384 54.8602 30.0053 54.9072C29.8673 54.9352 29.7294 54.9629 29.5923 54.994C28.4223 55.2594 27.5337 54.4871 27.2029 53.6571L27.132 53.4772Z" fill="white" stroke="white"/>
</g>
<defs>
<clipPath id="clip0_41_13173">
<rect width="44" height="24" fill="white" transform="translate(19 35.5137) rotate(-13.8249)"/>
</clipPath>
</defs>
</svg>
