<svg width="65" height="64" viewBox="0 0 65 64" fill="none" xmlns="http://www.w3.org/2000/svg">
<circle cx="32.5" cy="32" r="32" fill="#FFADAD"/>
<path d="M47.693 41.4443L39.845 35.4443L35.957 39.3323L41.957 47.1803C42.3125 47.6454 42.7634 48.0291 43.2793 48.3057C43.7952 48.5823 44.3643 48.7454 44.9484 48.784C45.5326 48.8226 46.1182 48.7359 46.6661 48.5297C47.2139 48.3235 47.7114 48.0025 48.125 47.5883C49.865 45.8483 49.673 42.9443 47.693 41.4443ZM43.805 45.8123C43.6368 45.6475 43.5029 45.4509 43.4112 45.234C43.3194 45.0171 43.2715 44.7841 43.2703 44.5486C43.2691 44.3131 43.3147 44.0797 43.4042 43.8618C43.4938 43.644 43.6257 43.4461 43.7922 43.2795C43.9588 43.113 44.1567 42.9811 44.3745 42.8915C44.5924 42.802 44.8258 42.7564 45.0613 42.7576C45.2968 42.7588 45.5298 42.8067 45.7467 42.8985C45.9636 42.9902 46.1602 43.1241 46.325 43.2923C46.6536 43.6277 46.8367 44.0791 46.8343 44.5486C46.8319 45.0181 46.6444 45.4677 46.3124 45.7997C45.9804 46.1317 45.5308 46.3192 45.0613 46.3216C44.5918 46.324 44.1404 46.141 43.805 45.8123Z" fill="url(#paint0_linear_1_6626)"/>
<path d="M47.693 41.4443L39.845 35.4443L35.957 39.3323L41.957 47.1803C42.3125 47.6454 42.7634 48.0291 43.2793 48.3057C43.7952 48.5823 44.3643 48.7454 44.9484 48.784C45.5326 48.8226 46.1182 48.7359 46.6661 48.5297C47.2139 48.3235 47.7114 48.0025 48.125 47.5883C49.865 45.8483 49.673 42.9443 47.693 41.4443ZM43.805 45.8123C43.6368 45.6475 43.5029 45.4509 43.4112 45.234C43.3194 45.0171 43.2715 44.7841 43.2703 44.5486C43.2691 44.3131 43.3147 44.0797 43.4042 43.8618C43.4938 43.644 43.6257 43.4461 43.7922 43.2795C43.9588 43.113 44.1567 42.9811 44.3745 42.8915C44.5924 42.802 44.8258 42.7564 45.0613 42.7576C45.2968 42.7588 45.5298 42.8067 45.7467 42.8985C45.9636 42.9902 46.1602 43.1241 46.325 43.2923C46.6536 43.6277 46.8367 44.0791 46.8343 44.5486C46.8319 45.0181 46.6444 45.4677 46.3124 45.7997C45.9804 46.1317 45.5308 46.3192 45.0613 46.3216C44.5918 46.324 44.1404 46.141 43.805 45.8123Z" fill="url(#paint1_radial_1_6626)"/>
<path d="M47.693 41.4443L39.845 35.4443L35.957 39.3323L41.957 47.1803C42.3125 47.6454 42.7634 48.0291 43.2793 48.3057C43.7952 48.5823 44.3643 48.7454 44.9484 48.784C45.5326 48.8226 46.1182 48.7359 46.6661 48.5297C47.2139 48.3235 47.7114 48.0025 48.125 47.5883C49.865 45.8483 49.673 42.9443 47.693 41.4443ZM43.805 45.8123C43.6368 45.6475 43.5029 45.4509 43.4112 45.234C43.3194 45.0171 43.2715 44.7841 43.2703 44.5486C43.2691 44.3131 43.3147 44.0797 43.4042 43.8618C43.4938 43.644 43.6257 43.4461 43.7922 43.2795C43.9588 43.113 44.1567 42.9811 44.3745 42.8915C44.5924 42.802 44.8258 42.7564 45.0613 42.7576C45.2968 42.7588 45.5298 42.8067 45.7467 42.8985C45.9636 42.9902 46.1602 43.1241 46.325 43.2923C46.6536 43.6277 46.8367 44.0791 46.8343 44.5486C46.8319 45.0181 46.6444 45.4677 46.3124 45.7997C45.9804 46.1317 45.5308 46.3192 45.0613 46.3216C44.5918 46.324 44.1404 46.141 43.805 45.8123Z" fill="url(#paint2_radial_1_6626)"/>
<path d="M29.9572 43.7122C37.8304 43.7122 44.2132 37.3294 44.2132 29.4562C44.2132 21.583 37.8304 15.2002 29.9572 15.2002C22.084 15.2002 15.7012 21.583 15.7012 29.4562C15.7012 37.3294 22.084 43.7122 29.9572 43.7122Z" fill="url(#paint3_linear_1_6626)"/>
<g filter="url(#filter0_f_1_6626)">
<path d="M29.9573 42.9995C37.4369 42.9995 43.5005 36.9359 43.5005 29.4563C43.5005 21.9767 37.4369 15.9131 29.9573 15.9131C22.4777 15.9131 16.4141 21.9767 16.4141 29.4563C16.4141 36.9359 22.4777 42.9995 29.9573 42.9995Z" fill="url(#paint4_linear_1_6626)"/>
<path d="M29.9573 42.9995C37.4369 42.9995 43.5005 36.9359 43.5005 29.4563C43.5005 21.9767 37.4369 15.9131 29.9573 15.9131C22.4777 15.9131 16.4141 21.9767 16.4141 29.4563C16.4141 36.9359 22.4777 42.9995 29.9573 42.9995Z" fill="url(#paint5_radial_1_6626)"/>
</g>
<path d="M29.9563 40.2563C32.8206 40.2563 35.5676 39.1184 37.593 37.093C39.6184 35.0676 40.7563 32.3206 40.7563 29.4563C40.7563 26.5919 39.6184 23.8449 37.593 21.8195C35.5676 19.7941 32.8206 18.6563 29.9563 18.6562C27.0919 18.6563 24.3449 19.7941 22.3195 21.8195C20.2941 23.8449 19.1563 26.5919 19.1562 29.4563C19.1562 32.3206 20.2941 35.0676 22.3195 37.093C24.3449 39.1184 27.0919 40.2563 29.9563 40.2563Z" fill="url(#paint6_radial_1_6626)"/>
<path d="M29.9563 40.2563C32.8206 40.2563 35.5676 39.1184 37.593 37.093C39.6184 35.0676 40.7563 32.3206 40.7563 29.4563C40.7563 26.5919 39.6184 23.8449 37.593 21.8195C35.5676 19.7941 32.8206 18.6563 29.9563 18.6562C27.0919 18.6563 24.3449 19.7941 22.3195 21.8195C20.2941 23.8449 19.1563 26.5919 19.1562 29.4563C19.1562 32.3206 20.2941 35.0676 22.3195 37.093C24.3449 39.1184 27.0919 40.2563 29.9563 40.2563Z" fill="url(#paint7_radial_1_6626)"/>
<g filter="url(#filter1_f_1_6626)">
<path d="M36.0767 27.529C35.7407 27.061 35.2967 26.725 34.8047 26.557C34.2647 26.365 33.7847 26.017 33.4007 25.597C33.2318 25.4022 33.0471 25.2215 32.8487 25.057C31.9128 24.2534 30.7532 23.7558 29.5259 23.6314C28.2987 23.5069 27.0628 23.7616 25.9847 24.361C25.4327 24.673 24.8327 24.877 24.2087 24.997H24.1967C23.5487 25.129 23.0447 25.681 22.9607 26.341C22.9487 26.497 22.9487 26.641 22.9727 26.785C23.0687 27.373 23.1047 27.961 22.9967 28.549C22.8158 29.5475 22.8906 30.5755 23.214 31.5373C23.5375 32.4991 24.099 33.3634 24.8465 34.0498C25.5939 34.7361 26.5028 35.2221 27.4887 35.4626C28.4745 35.703 29.5052 35.6901 30.4847 35.425C31.1807 35.233 31.9127 35.185 32.6327 35.233C33.1007 35.257 33.5687 35.101 33.9287 34.741C34.3967 34.273 34.5407 33.589 34.3367 33.001C34.2407 32.713 34.2647 32.389 34.3847 32.113V32.101C34.5047 31.825 34.7327 31.621 34.9967 31.501C35.4167 31.309 35.7887 30.997 36.0887 30.577C36.7127 29.641 36.7127 28.417 36.0767 27.529Z" fill="#3D3246"/>
</g>
<path d="M36.522 27.1764C36.186 26.7084 35.742 26.3724 35.25 26.2044C34.71 26.0124 34.23 25.6644 33.846 25.2444C33.6771 25.0496 33.4925 24.869 33.294 24.7044C32.3581 23.9008 31.1985 23.4033 29.9712 23.2788C28.744 23.1544 27.5081 23.409 26.43 24.0084C25.878 24.3204 25.278 24.5244 24.654 24.6444H24.642C23.994 24.7764 23.49 25.3284 23.406 25.9884C23.394 26.1444 23.394 26.2884 23.418 26.4324C23.514 27.0204 23.55 27.6084 23.442 28.1964C23.2611 29.1949 23.3359 30.2229 23.6593 31.1848C23.9828 32.1466 24.5444 33.0109 25.2918 33.6972C26.0392 34.3836 26.9482 34.8696 27.934 35.11C28.9198 35.3505 29.9505 35.3376 30.93 35.0724C31.626 34.8804 32.358 34.8324 33.078 34.8804C33.546 34.9044 34.014 34.7484 34.374 34.3884C34.842 33.9204 34.986 33.2364 34.782 32.6484C34.686 32.3604 34.71 32.0364 34.83 31.7604V31.7484C34.95 31.4724 35.178 31.2684 35.442 31.1484C35.862 30.9564 36.234 30.6444 36.534 30.2244C37.158 29.2884 37.158 28.0644 36.522 27.1764Z" fill="url(#paint8_linear_1_6626)"/>
<g filter="url(#filter2_f_1_6626)">
<path d="M35.8319 27.4032C35.5534 27.0034 35.1569 26.7005 34.6979 26.5368C34.2173 26.3571 33.7877 26.0631 33.4463 25.68C32.6315 24.7753 31.5339 24.1736 30.3329 23.9735C29.1318 23.7734 27.8985 23.9867 26.8343 24.5784C26.3423 24.8568 25.8071 25.038 25.2503 25.146H25.2407C24.9557 25.2073 24.6967 25.3553 24.4992 25.5698C24.3018 25.7842 24.1755 26.0546 24.1379 26.3436C24.1257 26.4756 24.1297 26.6086 24.1499 26.7396C24.2339 27.264 23.9843 28.02 23.8883 28.5444C23.7273 29.4347 23.7942 30.3511 24.0827 31.2086C24.3712 32.066 24.872 32.8365 25.5384 33.4483C26.2048 34.0601 27.0152 34.4933 27.8941 34.7076C28.773 34.9219 29.6919 34.9104 30.5651 34.674C31.1855 34.5036 32.1203 34.23 32.7611 34.272C33.0082 34.2872 33.2552 34.2412 33.4804 34.1383C33.7055 34.0354 33.9018 33.8787 34.0521 33.682C34.2023 33.4852 34.3019 33.2546 34.3419 33.0103C34.3819 32.766 34.3612 32.5156 34.2815 32.2812C34.1986 32.0209 34.2136 31.7393 34.3235 31.4892V31.4796C34.4329 31.2397 34.6275 31.049 34.8695 30.9444C35.2439 30.7728 35.5751 30.4956 35.8427 30.12C36.3995 29.286 36.3995 28.1952 35.8319 27.4032Z" fill="url(#paint9_linear_1_6626)"/>
</g>
<g filter="url(#filter3_f_1_6626)">
<path d="M27.9248 32.3809C28.7011 32.3809 29.4455 32.0726 29.9944 31.5237C30.5433 30.9748 30.8516 30.2304 30.8516 29.4541C30.8516 28.6779 30.5433 27.9335 29.9944 27.3846C29.4455 26.8357 28.7011 26.5273 27.9248 26.5273C27.1486 26.5273 26.4042 26.8357 25.8553 27.3846C25.3064 27.9335 24.998 28.6779 24.998 29.4541C24.998 30.2304 25.3064 30.9748 25.8553 31.5237C26.4042 32.0726 27.1486 32.3809 27.9248 32.3809Z" fill="#AE8CBB"/>
</g>
<g filter="url(#filter4_f_1_6626)">
<path d="M28.5965 32.2165C28.9952 32.2165 29.39 32.138 29.7584 31.9854C30.1267 31.8329 30.4614 31.6092 30.7433 31.3273C31.0252 31.0454 31.2489 30.7107 31.4014 30.3424C31.554 29.974 31.6325 29.5792 31.6325 29.1805C31.6325 28.7818 31.554 28.387 31.4014 28.0187C31.2489 27.6504 31.0252 27.3157 30.7433 27.0338C30.4614 26.7518 30.1267 26.5282 29.7584 26.3756C29.39 26.2231 28.9952 26.1445 28.5965 26.1445C27.7914 26.1445 27.0191 26.4644 26.4498 27.0338C25.8804 27.6031 25.5605 28.3753 25.5605 29.1805C25.5605 29.9857 25.8804 30.7579 26.4498 31.3273C27.0191 31.8967 27.7914 32.2165 28.5965 32.2165Z" fill="white"/>
</g>
<path d="M28.409 32.2165C28.8077 32.2165 29.2025 32.138 29.5709 31.9854C29.9392 31.8329 30.2739 31.6092 30.5558 31.3273C30.8377 31.0454 31.0614 30.7107 31.2139 30.3424C31.3665 29.974 31.445 29.5792 31.445 29.1805C31.445 28.7818 31.3665 28.387 31.2139 28.0187C31.0614 27.6504 30.8377 27.3157 30.5558 27.0338C30.2739 26.7518 29.9392 26.5282 29.5709 26.3756C29.2025 26.2231 28.8077 26.1445 28.409 26.1445C27.6038 26.1445 26.8316 26.4644 26.2623 27.0338C25.6929 27.6031 25.373 28.3753 25.373 29.1805C25.373 29.9857 25.6929 30.7579 26.2623 31.3273C26.8316 31.8967 27.6038 32.2165 28.409 32.2165Z" fill="url(#paint10_radial_1_6626)"/>
<g filter="url(#filter5_f_1_6626)">
<path d="M29.5762 27.2754C29.8882 27.4494 30.5506 28.0554 30.7006 29.0754" stroke="url(#paint11_radial_1_6626)" stroke-width="0.5" stroke-linecap="round"/>
</g>
<g filter="url(#filter6_f_1_6626)">
<path d="M42.8505 43.626C42.6455 44.0742 42.5932 44.5772 42.7016 45.058C42.81 45.5387 43.0731 45.9707 43.4505 46.2876" stroke="url(#paint12_radial_1_6626)" stroke-width="0.5" stroke-linecap="round"/>
</g>
<g filter="url(#filter7_f_1_6626)">
<path d="M41.9883 37.7754L47.8767 42.3498C48.5511 42.9498 49.3527 44.877 48.0639 47.037" stroke="url(#paint13_radial_1_6626)" stroke-width="0.5" stroke-linecap="round"/>
</g>
<g filter="url(#filter8_f_1_6626)">
<path d="M37.9375 41L42.8695 47.2256C43.6375 48.1256 45.0031 48.6536 46.5631 47.9936" stroke="#513D75" stroke-width="0.5" stroke-linecap="round"/>
</g>
<defs>
<filter id="filter0_f_1_6626" x="15.9141" y="15.4131" width="28.0859" height="28.0859" filterUnits="userSpaceOnUse" color-interpolation-filters="sRGB">
<feFlood flood-opacity="0" result="BackgroundImageFix"/>
<feBlend mode="normal" in="SourceGraphic" in2="BackgroundImageFix" result="shape"/>
<feGaussianBlur stdDeviation="0.25" result="effect1_foregroundBlur_1_6626"/>
</filter>
<filter id="filter1_f_1_6626" x="22.4004" y="23.1006" width="14.6543" height="13.0332" filterUnits="userSpaceOnUse" color-interpolation-filters="sRGB">
<feFlood flood-opacity="0" result="BackgroundImageFix"/>
<feBlend mode="normal" in="SourceGraphic" in2="BackgroundImageFix" result="shape"/>
<feGaussianBlur stdDeviation="0.25" result="effect1_foregroundBlur_1_6626"/>
</filter>
<filter id="filter2_f_1_6626" x="23.5527" y="23.6504" width="12.957" height="11.46" filterUnits="userSpaceOnUse" color-interpolation-filters="sRGB">
<feFlood flood-opacity="0" result="BackgroundImageFix"/>
<feBlend mode="normal" in="SourceGraphic" in2="BackgroundImageFix" result="shape"/>
<feGaussianBlur stdDeviation="0.125" result="effect1_foregroundBlur_1_6626"/>
</filter>
<filter id="filter3_f_1_6626" x="24.498" y="26.0273" width="6.85352" height="6.85352" filterUnits="userSpaceOnUse" color-interpolation-filters="sRGB">
<feFlood flood-opacity="0" result="BackgroundImageFix"/>
<feBlend mode="normal" in="SourceGraphic" in2="BackgroundImageFix" result="shape"/>
<feGaussianBlur stdDeviation="0.25" result="effect1_foregroundBlur_1_6626"/>
</filter>
<filter id="filter4_f_1_6626" x="25.0605" y="25.6445" width="7.07227" height="7.07227" filterUnits="userSpaceOnUse" color-interpolation-filters="sRGB">
<feFlood flood-opacity="0" result="BackgroundImageFix"/>
<feBlend mode="normal" in="SourceGraphic" in2="BackgroundImageFix" result="shape"/>
<feGaussianBlur stdDeviation="0.25" result="effect1_foregroundBlur_1_6626"/>
</filter>
<filter id="filter5_f_1_6626" x="29.0762" y="26.7754" width="2.125" height="2.7998" filterUnits="userSpaceOnUse" color-interpolation-filters="sRGB">
<feFlood flood-opacity="0" result="BackgroundImageFix"/>
<feBlend mode="normal" in="SourceGraphic" in2="BackgroundImageFix" result="shape"/>
<feGaussianBlur stdDeviation="0.125" result="effect1_foregroundBlur_1_6626"/>
</filter>
<filter id="filter6_f_1_6626" x="42.1465" y="43.126" width="1.80469" height="3.66113" filterUnits="userSpaceOnUse" color-interpolation-filters="sRGB">
<feFlood flood-opacity="0" result="BackgroundImageFix"/>
<feBlend mode="normal" in="SourceGraphic" in2="BackgroundImageFix" result="shape"/>
<feGaussianBlur stdDeviation="0.125" result="effect1_foregroundBlur_1_6626"/>
</filter>
<filter id="filter7_f_1_6626" x="41.4883" y="37.2754" width="7.76172" height="10.2617" filterUnits="userSpaceOnUse" color-interpolation-filters="sRGB">
<feFlood flood-opacity="0" result="BackgroundImageFix"/>
<feBlend mode="normal" in="SourceGraphic" in2="BackgroundImageFix" result="shape"/>
<feGaussianBlur stdDeviation="0.125" result="effect1_foregroundBlur_1_6626"/>
</filter>
<filter id="filter8_f_1_6626" x="37.4375" y="40.5" width="9.625" height="8.28906" filterUnits="userSpaceOnUse" color-interpolation-filters="sRGB">
<feFlood flood-opacity="0" result="BackgroundImageFix"/>
<feBlend mode="normal" in="SourceGraphic" in2="BackgroundImageFix" result="shape"/>
<feGaussianBlur stdDeviation="0.125" result="effect1_foregroundBlur_1_6626"/>
</filter>
<linearGradient id="paint0_linear_1_6626" x1="39.251" y1="38.3759" x2="48.1118" y2="47.5847" gradientUnits="userSpaceOnUse">
<stop stop-color="#604A93"/>
<stop offset="1" stop-color="#594172"/>
</linearGradient>
<radialGradient id="paint1_radial_1_6626" cx="0" cy="0" r="1" gradientUnits="userSpaceOnUse" gradientTransform="translate(45.4754 44.7134) rotate(121.551) scale(2.5083 2.50979)">
<stop stop-color="#4C3965"/>
<stop offset="0.943" stop-opacity="0"/>
</radialGradient>
<radialGradient id="paint2_radial_1_6626" cx="0" cy="0" r="1" gradientUnits="userSpaceOnUse" gradientTransform="translate(39.1765 38.5632) rotate(135.822) scale(5.54252 2.59328)">
<stop stop-color="#482D6E"/>
<stop offset="1" stop-color="#3F285C" stop-opacity="0"/>
</radialGradient>
<linearGradient id="paint3_linear_1_6626" x1="40.8268" y1="20.7502" x2="18.4768" y2="37.9258" gradientUnits="userSpaceOnUse">
<stop stop-color="#7E75BF"/>
<stop offset="0.506" stop-color="#58457C"/>
<stop offset="1" stop-color="#4D3966"/>
</linearGradient>
<linearGradient id="paint4_linear_1_6626" x1="41.2097" y1="20.6867" x2="20.3909" y2="39.0203" gradientUnits="userSpaceOnUse">
<stop stop-color="#5E50A1"/>
<stop offset="0.449" stop-color="#5C4385"/>
<stop offset="1" stop-color="#5D3F7C"/>
</linearGradient>
<radialGradient id="paint5_radial_1_6626" cx="0" cy="0" r="1" gradientUnits="userSpaceOnUse" gradientTransform="translate(27.7419 30.0929) rotate(85.118) scale(20.0946)">
<stop offset="0.339" stop-color="#B5A4CB"/>
<stop offset="0.466" stop-color="#7E6898" stop-opacity="0"/>
</radialGradient>
<radialGradient id="paint6_radial_1_6626" cx="0" cy="0" r="1" gradientUnits="userSpaceOnUse" gradientTransform="translate(24.0258 30.1258) rotate(-3.39134) scale(20.2855)">
<stop stop-color="#654B7E"/>
<stop offset="0.466" stop-color="#4D3A5E"/>
<stop offset="1" stop-color="#1C1C1C"/>
</radialGradient>
<radialGradient id="paint7_radial_1_6626" cx="0" cy="0" r="1" gradientUnits="userSpaceOnUse" gradientTransform="translate(34.9748 25.926) rotate(111.224) scale(16.5742)">
<stop offset="0.821" stop-color="#5E3F77" stop-opacity="0"/>
<stop offset="1" stop-color="#60407C"/>
</radialGradient>
<linearGradient id="paint8_linear_1_6626" x1="33.402" y1="25.1004" x2="25.002" y2="33.3504" gradientUnits="userSpaceOnUse">
<stop stop-color="white"/>
<stop offset="0.657" stop-color="#E8DFEF"/>
<stop offset="0.879" stop-color="#C7B7D5"/>
<stop offset="1" stop-color="#D1BBE4"/>
</linearGradient>
<linearGradient id="paint9_linear_1_6626" x1="33.5507" y1="26.1504" x2="25.0763" y2="31.626" gradientUnits="userSpaceOnUse">
<stop stop-color="#FBEBFF"/>
<stop offset="1" stop-color="#FBEAFF"/>
</linearGradient>
<radialGradient id="paint10_radial_1_6626" cx="0" cy="0" r="1" gradientUnits="userSpaceOnUse" gradientTransform="translate(30.101 27.6495) rotate(144.66) scale(5.0568 5.0518)">
<stop stop-color="#FFDB5C"/>
<stop offset="0.709" stop-color="#F3A442"/>
<stop offset="1" stop-color="#B47049"/>
</radialGradient>
<radialGradient id="paint11_radial_1_6626" cx="0" cy="0" r="1" gradientUnits="userSpaceOnUse" gradientTransform="translate(30.3262 27.8754) rotate(169.439) scale(1.12531 1.44085)">
<stop stop-color="#FFEC86"/>
<stop offset="1" stop-color="#FFEA85" stop-opacity="0"/>
</radialGradient>
<radialGradient id="paint12_radial_1_6626" cx="0" cy="0" r="1" gradientUnits="userSpaceOnUse" gradientTransform="translate(42.9165 44.9544) rotate(161.566) scale(0.859742 1.4764)">
<stop stop-color="#8670A3"/>
<stop offset="1" stop-color="#846EA1" stop-opacity="0"/>
</radialGradient>
<radialGradient id="paint13_radial_1_6626" cx="0" cy="0" r="1" gradientUnits="userSpaceOnUse" gradientTransform="translate(44.2627 42.405) rotate(172.138) scale(6.91414 5.3631)">
<stop stop-color="#8670A3"/>
<stop offset="1" stop-color="#846EA1" stop-opacity="0"/>
</radialGradient>
</defs>
</svg>
