<svg width="65" height="64" viewBox="0 0 65 64" fill="none" xmlns="http://www.w3.org/2000/svg">
<circle cx="32.5" cy="32" r="32" fill="#CAFFBF"/>
<path d="M34.1 35.2H39.7C41.0232 35.2 42.1 34.1232 42.1 32.8V18.4C42.1 17.0768 41.0232 16 39.7 16H18.9C17.5768 16 16.5 17.0768 16.5 18.4V41.6L25.0328 35.2H34.1ZM19.7 35.04L19.9464 35.0144L19.7 35.2V35.04Z" fill="#171717"/>
<path d="M46.1016 25.5996H45.3016V35.2012C45.3016 36.9612 43.8728 38.39 42.1176 38.3996H26.1016V39.1996C26.1016 40.5228 27.1784 41.5996 28.5016 41.5996H39.9688L48.5016 47.9996V27.9996C48.5016 26.6764 47.4248 25.5996 46.1016 25.5996Z" fill="#171717"/>
</svg>
