<svg width="64" height="64" viewBox="0 0 64 64" fill="none" xmlns="http://www.w3.org/2000/svg">
<circle cx="32" cy="32" r="32" fill="#A0C4FF"/>
<path d="M32.0004 16C32.8491 16 33.663 16.3371 34.2631 16.9373C34.8632 17.5374 35.2004 18.3513 35.2004 19.2C35.2004 20.384 34.5604 21.424 33.6004 21.968V24H35.2004C38.1708 24 41.0196 25.18 43.12 27.2804C45.2204 29.3808 46.4004 32.2296 46.4004 35.2H48.0004C48.4247 35.2 48.8317 35.3686 49.1318 35.6686C49.4318 35.9687 49.6004 36.3757 49.6004 36.8V41.6C49.6004 42.0243 49.4318 42.4313 49.1318 42.7314C48.8317 43.0314 48.4247 43.2 48.0004 43.2H46.4004V44.8C46.4004 45.6487 46.0632 46.4626 45.4631 47.0627C44.863 47.6629 44.0491 48 43.2004 48H20.8004C19.9517 48 19.1378 47.6629 18.5376 47.0627C17.9375 46.4626 17.6004 45.6487 17.6004 44.8V43.2H16.0004C15.576 43.2 15.1691 43.0314 14.869 42.7314C14.569 42.4313 14.4004 42.0243 14.4004 41.6V36.8C14.4004 36.3757 14.569 35.9687 14.869 35.6686C15.1691 35.3686 15.576 35.2 16.0004 35.2H17.6004C17.6004 32.2296 18.7804 29.3808 20.8808 27.2804C22.9812 25.18 25.83 24 28.8004 24H30.4004V21.968C29.4404 21.424 28.8004 20.384 28.8004 19.2C28.8004 18.3513 29.1375 17.5374 29.7376 16.9373C30.3378 16.3371 31.1517 16 32.0004 16ZM24.8004 33.6C23.7395 33.6 22.7221 34.0214 21.972 34.7716C21.2218 35.5217 20.8004 36.5391 20.8004 37.6C20.8004 38.6609 21.2218 39.6783 21.972 40.4284C22.7221 41.1786 23.7395 41.6 24.8004 41.6C25.8613 41.6 26.8787 41.1786 27.6288 40.4284C28.379 39.6783 28.8004 38.6609 28.8004 37.6C28.8004 36.5391 28.379 35.5217 27.6288 34.7716C26.8787 34.0214 25.8613 33.6 24.8004 33.6ZM39.2004 33.6C38.1395 33.6 37.1221 34.0214 36.372 34.7716C35.6218 35.5217 35.2004 36.5391 35.2004 37.6C35.2004 38.6609 35.6218 39.6783 36.372 40.4284C37.1221 41.1786 38.1395 41.6 39.2004 41.6C40.2613 41.6 41.2787 41.1786 42.0288 40.4284C42.779 39.6783 43.2004 38.6609 43.2004 37.6C43.2004 36.5391 42.779 35.5217 42.0288 34.7716C41.2787 34.0214 40.2613 33.6 39.2004 33.6Z" fill="#C34747"/>
</svg>
