<svg width="64" height="64" viewBox="0 0 64 64" fill="none" xmlns="http://www.w3.org/2000/svg">
<circle cx="32" cy="32" r="32" fill="#9BF6FF"/>
<path d="M45.0592 20.6368C45.7088 21.4208 46.2672 22.2832 46.7168 23.2064C46.4474 23.7327 46.0747 24.1994 45.621 24.5785C45.1672 24.9575 44.6417 25.2413 44.0758 25.4127C43.51 25.5842 42.9153 25.6398 42.3275 25.5763C41.7396 25.5128 41.1706 25.3315 40.6544 25.0432L45.0592 20.6368ZM43.3632 18.9408L38.9568 23.344C38.6684 22.8279 38.487 22.2589 38.4234 21.6712C38.3598 21.0834 38.4153 20.4888 38.5866 19.9229C38.7579 19.3571 39.0415 18.8316 39.4204 18.3777C39.7993 17.9239 40.2658 17.5511 40.792 17.2816C41.7122 17.7295 42.5754 18.286 43.3632 18.9392V18.9408ZM48 28.8C48 27.816 47.888 26.8576 47.6784 25.936C47.0452 26.59 46.2868 27.1099 45.4484 27.4645C44.61 27.8191 43.7087 28.0012 42.7984 28C41.4097 28.0021 40.054 27.577 38.9152 26.7824L37.6976 28L45.7488 36.0512C47.2187 33.9191 48.004 31.3897 48 28.8ZM36 21.2C36 19.2864 36.7904 17.5568 38.064 16.32C36.3357 15.9261 34.5446 15.8944 32.8035 16.2268C31.0623 16.5591 29.4089 17.2484 27.9472 18.2512L36 26.3024L37.2176 25.0848C36.4227 23.9455 35.9975 22.5892 36 21.2ZM36 29.696L44.2016 37.8992C42.5938 39.4926 40.5917 40.6306 38.4 41.1968C38.4047 37.474 37.0727 33.8731 34.6464 31.0496L36 29.696ZM32.9504 29.3536C30.1268 26.9273 26.526 25.5953 22.8032 25.6C23.3689 23.4084 24.5063 21.4064 26.0992 19.7984L34.304 28L32.952 29.3536H32.9504ZM19.6 27.2C18.6452 27.2 17.7295 27.5793 17.0544 28.2544C16.3793 28.9295 16 29.8452 16 30.8V34C16 37.713 17.475 41.274 20.1005 43.8995C22.726 46.525 26.287 48 30 48H33.2C34.1548 48 35.0705 47.6207 35.7456 46.9456C36.4207 46.2704 36.8 45.3548 36.8 44.4V41.2C36.8 37.487 35.325 33.926 32.6995 31.3005C30.074 28.675 26.513 27.2 22.8 27.2H19.6ZM23.552 34.752C23.777 34.5273 24.082 34.401 24.4 34.401C24.718 34.401 25.023 34.5273 25.248 34.752L29.248 38.752C29.3659 38.8618 29.4605 38.9943 29.526 39.1415C29.5916 39.2887 29.6269 39.4476 29.6297 39.6088C29.6326 39.7699 29.603 39.9299 29.5426 40.0793C29.4822 40.2288 29.3924 40.3645 29.2785 40.4785C29.1645 40.5924 29.0288 40.6822 28.8794 40.7426C28.7299 40.8029 28.5699 40.8326 28.4088 40.8297C28.2476 40.8269 28.0887 40.7916 27.9415 40.726C27.7943 40.6605 27.6619 40.5659 27.552 40.448L23.552 36.448C23.3273 36.223 23.2011 35.918 23.2011 35.6C23.2011 35.282 23.3273 34.977 23.552 34.752Z" fill="black"/>
</svg>
